<?xml version="1.0" encoding="utf-8"?>
<!-- Generator: Adobe Illustrator 16.0.0, SVG Export Plug-In . SVG Version: 6.00 Build 0)  -->
<!DOCTYPE svg PUBLIC "-//W3C//DTD SVG 1.1//EN" "http://www.w3.org/Graphics/SVG/1.1/DTD/svg11.dtd">
<svg version="1.1" id="Layer_1" xmlns="http://www.w3.org/2000/svg" xmlns:xlink="http://www.w3.org/1999/xlink" x="0px" y="0px"
	 width="40.438px" height="30.313px" viewBox="5.125 9.938 40.438 30.313" enable-background="new 5.125 9.938 40.438 30.313"
	 xml:space="preserve">
<title>8</title>
<linearGradient id="SVGID_1_" gradientUnits="userSpaceOnUse" x1="1966.2266" y1="-2645.7837" x2="2717.0779" y2="-3207.3521" gradientTransform="matrix(0.1371 0 0 -0.1371 -283.9563 -361.5222)">
	<stop  offset="0.01" style="stop-color:#000000"/>
	<stop  offset="0.08" style="stop-color:#000000;stop-opacity:0.69"/>
	<stop  offset="0.21" style="stop-color:#000000;stop-opacity:0.32"/>
	<stop  offset="1" style="stop-color:#000000;stop-opacity:0"/>
</linearGradient>
<path fill="url(#SVGID_1_)" d="M44.812,27.55l-2.33,1.645l-10.349,7.271c-0.795,0.572-1.622,1.099-2.479,1.573
	c-0.698,0.377-1.097,1.098-1.941,1.289c-0.419,0.073-0.849,0.065-1.266-0.021c-0.681-0.111-1.352-0.281-2.003-0.509
	c-0.08-0.028-0.193-0.044-0.229,0.032c-0.036,0.077,0.156,0.068,0.089,0.018c-6.067-0.823-11.863-3.017-17.875-4.168
	c-0.178-0.033-0.295-0.205-0.263-0.383c0.021-0.11,0.096-0.203,0.201-0.244c0.484-0.197,1.012-0.274,1.545-0.379
	c0.959-0.176,1.905-0.35,2.862-0.506c1.929-0.334,3.876-0.55,5.831-0.646c3.246-0.137,6.523,0.209,9.734-0.293
	c3.05-0.478,5.921-1.696,8.759-2.916c0.686-0.294,1.384-0.599,1.919-1.113c0.422-0.405,0.759-0.938,1.295-1.205
	c0.557-0.273,1.234-0.226,1.832-0.198C41.722,26.864,43.278,27.186,44.812,27.55z"/>
<path fill="#68E1FD" d="M6.693,32.637l13.55-5.896c0.294-0.146,0.625-0.202,0.951-0.157l16.76,1.425c0.32,0.045,0.264,1.424,0,1.645
	l-9.898,8.426c-0.605,0.535-1.432,0.742-2.217,0.557L6.812,34.009C6.569,33.95,6.465,32.749,6.693,32.637z"/>
<linearGradient id="SVGID_2_" gradientUnits="userSpaceOnUse" x1="2217.8447" y1="-2810.2637" x2="2295.9751" y2="-3058.3845" gradientTransform="matrix(0.1371 0 0 -0.1371 -283.9563 -361.5222)">
	<stop  offset="0.01" style="stop-color:#000000"/>
	<stop  offset="0.08" style="stop-color:#000000;stop-opacity:0.69"/>
	<stop  offset="0.21" style="stop-color:#000000;stop-opacity:0.32"/>
	<stop  offset="1" style="stop-color:#000000;stop-opacity:0"/>
</linearGradient>
<path fill="url(#SVGID_2_)" d="M6.693,32.637l13.55-5.896c0.294-0.146,0.625-0.202,0.951-0.157l16.76,1.425
	c0.32,0.045,0.264,1.424,0,1.645l-9.898,8.426c-0.605,0.535-1.432,0.742-2.217,0.557L6.812,34.009
	C6.569,33.95,6.465,32.749,6.693,32.637z"/>
<path fill="#68E1FD" d="M37.958,28.677l-9.898,8.426c-0.604,0.535-1.432,0.742-2.217,0.558L6.812,33.032
	c-0.243-0.06-0.274-0.443-0.048-0.557l5.215-2.943l1.371-0.771l4.169-2.343c0.293-0.147,0.625-0.202,0.95-0.157l19.32,1.681
	C38.11,27.979,38.218,28.455,37.958,28.677z"/>
<linearGradient id="SVGID_3_" gradientUnits="userSpaceOnUse" x1="2237.4463" y1="-2721.9165" x2="2189.6726" y2="-3044.8616" gradientTransform="matrix(0.1371 0 0 -0.1371 -280.5686 -355.8698)">
	<stop  offset="0.01" style="stop-color:#000000"/>
	<stop  offset="0.08" style="stop-color:#000000;stop-opacity:0.69"/>
	<stop  offset="0.21" style="stop-color:#000000;stop-opacity:0.32"/>
	<stop  offset="1" style="stop-color:#000000;stop-opacity:0"/>
</linearGradient>
<polygon fill="url(#SVGID_3_)" points="18.468,26.72 36.128,29.331 30.692,33.746 12.569,30.079 "/>
<linearGradient id="SVGID_4_" gradientUnits="userSpaceOnUse" x1="2229.6348" y1="-2770.5518" x2="2286.8777" y2="-3035.0854" gradientTransform="matrix(0.1371 0 0 -0.1371 -283.9563 -361.5222)">
	<stop  offset="0.01" style="stop-color:#000000"/>
	<stop  offset="0.08" style="stop-color:#000000;stop-opacity:0.69"/>
	<stop  offset="0.21" style="stop-color:#000000;stop-opacity:0.32"/>
	<stop  offset="1" style="stop-color:#000000;stop-opacity:0"/>
</linearGradient>
<path fill="url(#SVGID_4_)" d="M36.342,29.809c-0.052,0.157-0.224,0.238-0.378,0.3c-1.13,0.424-2.281,0.787-3.449,1.086
	c-1.109,0.307-2.268,0.614-3.399,0.412c-0.142-0.037-0.29-0.05-0.437-0.036c-0.24,0.044-0.419,0.239-0.607,0.395
	c-0.936,0.771-2.304,0.595-3.496,0.378c0.051-0.393,0.076-0.789,0.076-1.186c-3.19,0.058-6.379-0.16-9.533-0.649
	c-0.685-0.105-2.538-0.189-3.005-0.759c-0.058-0.063-0.104-0.135-0.137-0.213l1.371-0.771c0.062,0.004,0.124,0.013,0.184,0.029
	c3.648,1.012,7.439,1.405,11.218,1.166c0.098-0.492-0.412-1.108-0.025-1.435c0.127-0.091,0.281-0.136,0.438-0.128
	c0.579-0.022,1.154,0.098,1.676,0.352c0.309,0.15,0.6,0.348,0.932,0.434c0.326,0.064,0.66,0.074,0.99,0.031
	c2.104-0.158,4.214-0.198,6.322-0.121c0.346,0.012,0.709,0.033,1.004,0.215C36.259,29.412,36.407,29.615,36.342,29.809z"/>
<linearGradient id="SVGID_5_" gradientUnits="userSpaceOnUse" x1="2190.0771" y1="-2767.0693" x2="2153.2634" y2="-3015.9146" gradientTransform="matrix(0.1371 0 0 -0.1371 -280.5686 -355.8698)">
	<stop  offset="0.01" style="stop-color:#000000"/>
	<stop  offset="0.08" style="stop-color:#000000;stop-opacity:0.69"/>
	<stop  offset="0.21" style="stop-color:#000000;stop-opacity:0.32"/>
	<stop  offset="1" style="stop-color:#000000;stop-opacity:0"/>
</linearGradient>
<polygon fill="url(#SVGID_5_)" points="16.62,31.173 23.897,32.644 20.134,35.714 12.569,34.017 "/>
<linearGradient id="SVGID_6_" gradientUnits="userSpaceOnUse" x1="2189.2031" y1="-2882.1978" x2="2169.6206" y2="-2932.5745" gradientTransform="matrix(0.1371 0 0 -0.1371 -283.9563 -361.5222)">
	<stop  offset="0.01" style="stop-color:#000000"/>
	<stop  offset="0.08" style="stop-color:#000000;stop-opacity:0.69"/>
	<stop  offset="0.21" style="stop-color:#000000;stop-opacity:0.32"/>
	<stop  offset="1" style="stop-color:#000000;stop-opacity:0"/>
</linearGradient>
<path fill="url(#SVGID_6_)" d="M12.981,34.548c0.15,0.303,0.424,0.525,0.75,0.613c0.535,0.129,3.651,0.926,3.651,0.926
	s0.507,0.061,0.789-0.273L12.981,34.548z"/>
<path fill="#68E1FD" d="M17.914,26.252l19.932,2.837c0.304,0.042,0.587-0.159,0.647-0.459l2.844-14.359
	c0.119-0.602-0.271-1.188-0.875-1.307c-0.039-0.008-0.079-0.014-0.119-0.017l-19.684-1.726c-0.603-0.053-1.137,0.386-1.203,0.987
	L17.914,26.252z"/>
<linearGradient id="SVGID_7_" gradientUnits="userSpaceOnUse" x1="2275.8184" y1="-2683.0454" x2="2359.7297" y2="-3415.8867" gradientTransform="matrix(0.1371 0 0 -0.1371 -283.9563 -361.5222)">
	<stop  offset="0.01" style="stop-color:#000000"/>
	<stop  offset="0.08" style="stop-color:#000000;stop-opacity:0.69"/>
	<stop  offset="0.21" style="stop-color:#000000;stop-opacity:0.32"/>
	<stop  offset="1" style="stop-color:#000000;stop-opacity:0"/>
</linearGradient>
<path fill="url(#SVGID_7_)" d="M17.914,26.252l19.88,2.829c0.333,0.047,0.646-0.175,0.711-0.505l2.832-14.305
	c0.119-0.602-0.271-1.188-0.875-1.307c-0.039-0.008-0.079-0.014-0.119-0.017l-19.684-1.726c-0.603-0.053-1.137,0.386-1.203,0.987
	L17.914,26.252z"/>
<polygon fill="#FFFFFF" points="37.485,28.263 40.316,13.776 20.243,11.922 18.648,25.64 "/>
<path fill="#68E1FD" d="M35.835,16.41l-14.079-1.465l0.319-1.782l14.083,1.465c0.47,0.03,0.825,0.436,0.794,0.905
	c-0.002,0.029-0.005,0.059-0.01,0.088l0,0C36.831,16.128,36.352,16.47,35.835,16.41z"/>
<polygon opacity="0.56" fill="#FFFFFF" enable-background="new    " points="21.756,14.944 33.128,16.13 33.448,14.342 
	22.075,13.155 "/>
<ellipse transform="matrix(-0.3641 -0.9314 0.9314 -0.3641 33.4733 53.4823)" fill="none" stroke="#FFFFFF" stroke-width="1.04" stroke-miterlimit="10" cx="34.994" cy="15.314" rx="0.429" ry="0.468"/>
<path fill="none" stroke="#FFFFFF" stroke-width="1.04" stroke-miterlimit="10" d="M35.286,16.056
	c-0.01-0.023-0.129-0.348-0.129-0.348"/>
<polygon opacity="0.18" fill="#68E1FD" enable-background="new    " points="35.698,18.99 21.331,17.452 21.406,17.216 
	35.772,18.754 "/>
<polygon opacity="0.18" fill="#68E1FD" enable-background="new    " points="26.438,17.104 21.587,16.529 21.687,16.107 
	26.539,16.636 "/>
<polygon opacity="0.18" fill="#68E1FD" enable-background="new    " points="35.521,19.94 21.152,18.402 21.227,18.166 
	35.595,19.704 "/>
<g opacity="0.66">
	<polygon opacity="0.18" fill="#68E1FD" enable-background="new    " points="25.667,20.898 20.815,20.325 20.914,19.902 
		25.768,20.431 	"/>
	<polygon opacity="0.18" fill="#68E1FD" enable-background="new    " points="34.889,22.87 20.521,21.332 20.597,21.094 
		34.964,22.634 	"/>
	<polygon opacity="0.18" fill="#68E1FD" enable-background="new    " points="34.562,23.969 20.192,22.431 20.269,22.195 
		34.635,23.733 	"/>
</g>
<polygon opacity="0.18" fill="#68E1FD" enable-background="new    " points="34.282,26.345 19.93,24.471 20.004,24.237 
	34.356,26.11 "/>
<path fill="#FFFFFF" d="M26.318,24.96c0,0-14.683,4.862-16.69,0.498c-2.007-4.364,8.984-5.56,8.984-5.56s-12.844,1.279-9.962,6.67
	c2.882,5.391,18.544,0.06,18.544,0.06L26.318,24.96z"/>
<path fill="#FCB400" d="M26.353,24.759c0.006,0.2,0.061,0.395,0.159,0.569l0.362,0.773c0.076,0.192,0.186,0.37,0.32,0.527
	c0.215,0.218,0.521,0.319,0.822,0.274c0.144-0.01,0.271-0.092,0.338-0.219c0.062-0.161-0.043-0.332-0.126-0.482
	c-0.226-0.4-0.321-0.859-0.429-1.306c-0.082-0.348-0.249-0.839-0.674-0.888C26.751,23.964,26.374,24.393,26.353,24.759z"/>
<path fill="#FCB400" d="M30.04,22.958c0,0-3.105-2.842-6.143,0c0,0,2.348-0.303,3.07,0.99L30.04,22.958z"/>
<path fill="#FCB400" d="M31.31,25.556c0,0-0.147,4.209-4.303,4.387c0,0,1.86-1.463,1.445-2.885L31.31,25.556z"/>
<path fill="#FFFFFF" d="M26.968,23.95c0,0,9.797-5.621,15.304-4.722c0,0-1.245,4.047-13.823,7.829L26.968,23.95z"/>
<linearGradient id="SVGID_8_" gradientUnits="userSpaceOnUse" x1="2318.9492" y1="-2771.063" x2="2342.8767" y2="-2888.1709" gradientTransform="matrix(0.1371 0 0 -0.1371 -283.9563 -361.5222)">
	<stop  offset="0.01" style="stop-color:#000000"/>
	<stop  offset="0.08" style="stop-color:#000000;stop-opacity:0.69"/>
	<stop  offset="0.21" style="stop-color:#000000;stop-opacity:0.32"/>
	<stop  offset="1" style="stop-color:#000000;stop-opacity:0"/>
</linearGradient>
<path fill="url(#SVGID_8_)" d="M42.278,19.226c0,0-1.245,4.047-13.824,7.828l-0.447-0.941l-1.039-2.162
	c0,0,8.695-4.996,14.307-4.817C41.61,19.142,41.946,19.173,42.278,19.226z"/>
<path fill="#FFFFFF" d="M42.278,19.226c-0.871,1.142-3.876,3.247-10.054,5.491c-0.349,0.128-0.708,0.256-1.079,0.384
	c-0.973,0.336-2.02,0.674-3.139,1.012L26.97,23.95c0,0,1.07-0.643,2.707-1.46c0.864-0.432,1.886-0.912,2.99-1.371
	C35.751,19.837,39.488,18.706,42.278,19.226z"/>
<linearGradient id="SVGID_9_" gradientUnits="userSpaceOnUse" x1="2263.9844" y1="-2812.3779" x2="2397.2373" y2="-2802.0601" gradientTransform="matrix(0.1371 0 0 -0.1371 -283.9563 -361.5222)">
	<stop  offset="0.01" style="stop-color:#000000"/>
	<stop  offset="0.08" style="stop-color:#000000;stop-opacity:0.69"/>
	<stop  offset="0.21" style="stop-color:#000000;stop-opacity:0.32"/>
	<stop  offset="1" style="stop-color:#000000;stop-opacity:0"/>
</linearGradient>
<path fill="url(#SVGID_9_)" d="M34.729,21.325c-0.522,0.218-1.109,0.183-1.674,0.219c-0.168,0.007-0.334,0.033-0.496,0.078
	c-0.32,0.124-0.611,0.311-0.857,0.549c-0.033,0.023-0.059,0.056-0.071,0.094c-0.003,0.04,0.007,0.08,0.028,0.114
	c0.125,0.255,0.268,0.5,0.43,0.734c0.191,0.274,0.418,0.566,0.412,0.903c-0.02,0.258-0.121,0.504-0.287,0.702l-0.041,0.058
	c-0.198,0.267-0.412,0.52-0.643,0.759c-0.171,0.175-0.061,0.711-0.473,0.582c-0.357-0.111-0.184-0.535-0.062-0.759l0.138-0.255
	l0.23-0.427c0.175-0.322,0.354-0.705,0.205-1.041c-0.104-0.234-0.344-0.375-0.568-0.501c-0.425-0.251-0.869-0.467-1.33-0.643
	c0.863-0.432,1.885-0.912,2.99-1.371c0.721,0.061,1.445,0.071,2.168,0.032C34.89,21.208,34.805,21.293,34.729,21.325z"/>
<circle fill="#FCB400" cx="33.509" cy="22.619" r="1.127"/>
<linearGradient id="SVGID_10_" gradientUnits="userSpaceOnUse" x1="2257.4697" y1="-2731.1318" x2="2379.1196" y2="-2837.7605" gradientTransform="matrix(0.1371 0 0 -0.1371 -280.5686 -355.8698)">
	<stop  offset="0.01" style="stop-color:#000000"/>
	<stop  offset="0.08" style="stop-color:#000000;stop-opacity:0.69"/>
	<stop  offset="0.21" style="stop-color:#000000;stop-opacity:0.32"/>
	<stop  offset="1" style="stop-color:#000000;stop-opacity:0"/>
</linearGradient>
<circle fill="url(#SVGID_10_)" cx="33.509" cy="22.581" r="0.768"/>
<path fill="#FCAB9A" d="M31.824,20.165c0,0.007-0.161-0.021-0.157-0.013c0.037,0.044,0.084,0.078,0.137,0.099
	c0.193,0.078,0.393,0.144,0.596,0.197c0.201,0.021,0.299-0.17,0.361-0.331c0.051-0.129,0.104-0.258,0.156-0.385
	c0.041-0.082,0.066-0.17,0.076-0.262c0.003-0.021,0-0.042-0.008-0.062c-0.013-0.025-0.035-0.045-0.062-0.055
	c-0.04-0.016-0.085-0.016-0.126,0c-0.074,0.032-0.108,0.115-0.146,0.187c-0.087,0.163-0.222,0.296-0.296,0.465
	c-0.056,0.003-0.109-0.015-0.152-0.051l-0.24-0.156c-0.012-0.009-0.025-0.015-0.039-0.018c-0.024-0.001-0.047,0.009-0.063,0.029
	c-0.043,0.052-0.068,0.116-0.074,0.184c-0.006,0.034-0.006,0.07,0,0.104C31.798,20.122,31.81,20.145,31.824,20.165z"/>
<path fill="#68E1FD" d="M32.009,19.792l0.086,0.052c0.012,0,0.024,0.014,0.028,0.027c0.003,0.01,0.003,0.02,0,0.03l-0.056,0.25
	c-0.018,0.111-0.058,0.218-0.118,0.314c-0.033,0.045-0.274-0.122-0.315-0.144c-0.103-0.068-0.192-0.154-0.265-0.254
	c-0.033-0.041-0.06-0.087-0.075-0.137c-0.025-0.126-0.006-0.258,0.055-0.372c0.096-0.188,0.258-0.095,0.38,0.021
	C31.815,19.659,31.909,19.73,32.009,19.792z"/>
<path fill="#FCAB9A" d="M30.462,26.019c0.004,0.019,0.014,0.035,0.027,0.047c0.195,0.191,0.428,0.339,0.684,0.436
	c0.016,0.008,0.033,0.013,0.051,0.014c0.035-0.008,0.061-0.04,0.058-0.076c-0.003-0.035-0.017-0.068-0.036-0.096
	c-0.051-0.08-0.107-0.155-0.17-0.227c-0.057-0.047-0.094-0.115-0.102-0.19c0.005-0.037,0.015-0.073,0.028-0.108
	c0.041-0.154-0.217-0.187-0.325-0.149C30.553,25.743,30.473,25.874,30.462,26.019z"/>
<path fill="#473F47" d="M29.831,21.665c0,0-0.468,0.652,0.014,1.233c0.333,0.403,0.834,0.678,1.294,0.908
	c0.081,0.042,0.177,0.074,0.255,0.124c0.152,0.096,0.059,0.177-0.021,0.304c-0.203,0.327-0.408,0.65-0.614,0.972
	c-0.12,0.163-0.201,0.35-0.24,0.549l0.522,0.158c0.281-0.479,0.603-0.935,0.96-1.361c0.155-0.184,0.354-0.412,0.326-0.667
	c-0.036-0.236-0.14-0.457-0.299-0.635l-0.978-1.135L29.831,21.665z"/>
<path fill="#FCAB9A" d="M32.102,18.546c0.017,0.048,0.063,0.086,0.069,0.137c0.008,0.05-0.045,0.111-0.079,0.167
	s-0.058,0.165-0.104,0.24c-0.008,0.017-0.021,0.03-0.038,0.039c-0.015,0.005-0.03,0.008-0.047,0.008
	c-0.062-0.002-0.124-0.012-0.184-0.03c-0.011-0.007-0.022-0.01-0.036-0.008c-0.01,0.006-0.018,0.016-0.021,0.028
	c-0.07,0.144-0.104,0.303-0.098,0.463c0,0.052,0,0.118-0.042,0.144c-0.016,0.01-0.034,0.015-0.052,0.014
	c-0.121,0-0.213-0.108-0.274-0.215c-0.051-0.096-0.09-0.198-0.116-0.303c-0.01-0.03-0.014-0.063-0.012-0.095
	c0.006-0.037,0.02-0.073,0.039-0.105c0.061-0.119,0.109-0.243,0.146-0.372c0.031-0.168,0.089-0.33,0.17-0.481
	c0.031-0.048,0.076-0.085,0.13-0.105c0.062-0.014,0.124-0.01,0.185,0.009c0.123,0.02,0.234,0.087,0.311,0.187
	C32.071,18.302,32.082,18.484,32.102,18.546z"/>
<path fill="#68E1FD" d="M30.899,22.201c-0.105,0.017-0.213,0.011-0.314-0.018c-0.15-0.03-0.303-0.039-0.455-0.026
	c-0.09,0.022-0.179,0.052-0.265,0.089c-0.141,0.038-0.291,0.012-0.411-0.07c0-0.021,0-0.042,0-0.063
	c0.021-0.184-0.057-0.444,0-0.621c0.201-0.706,0.373-1.234,0.774-1.84c0.115-0.174,0.569-0.398,0.755-0.491
	c0.043-0.022,0.09-0.036,0.138-0.04c0.056,0.002,0.109,0.017,0.157,0.044c0.166,0.081,0.23,0.231,0.312,0.388
	c0.095,0.159,0.159,0.334,0.189,0.517c0.021,0.236,0.104,0.457-0.03,0.676c-0.186,0.309-0.492,0.517-0.664,0.85
	c-0.029,0.048-0.047,0.104-0.049,0.161c0,0.079,0.057,0.152,0.057,0.231C31.081,22.094,31.003,22.18,30.899,22.201z"/>
<path fill="#FCAB9A" d="M31.956,21.089c0.066,0.03,0.137,0.056,0.193,0.078c0.322,0.103,0.656,0.164,0.994,0.181
	c0.424,0.054,0.854,0.062,1.28,0.023c0.175-0.014,0.343-0.066,0.493-0.155c0.045-0.029,0.09-0.081,0.067-0.129
	c-0.013-0.021-0.032-0.038-0.055-0.048c-0.165-0.087-0.351-0.125-0.536-0.112c0-0.064-0.017-0.147-0.08-0.152
	c-0.063-0.005-0.1,0.081-0.137,0.137c-0.082,0.137-0.273,0.152-0.428,0.151c-0.354,0.005-0.709-0.031-1.056-0.108
	c-0.173-0.042-0.342-0.103-0.501-0.182c-0.104-0.052-0.311-0.268-0.412-0.152s-0.195,0.192-0.059,0.314
	C31.792,20.997,31.87,21.049,31.956,21.089z"/>
<path fill="#68E1FD" d="M31.421,19.766c0,0,0.537,0.758,0.616,0.803c0.078,0.045-0.483,0.597-0.483,0.597s-0.649-0.704-0.725-1.063
	C30.753,19.744,31.089,19.497,31.421,19.766z"/>
<path fill="#FC682D" d="M32.044,18.192c-0.047,0.064-0.117,0.105-0.196,0.115c-0.067,0.011-0.136,0.017-0.204,0.018
	c0,0-0.013,0-0.017,0c-0.005,0.005-0.007,0.013-0.007,0.021c-0.006,0.106-0.056,0.206-0.137,0.274
	c-0.012,0.007-0.02,0.016-0.025,0.028c-0.006,0.016-0.006,0.033,0,0.049c0.01,0.055,0.01,0.111,0,0.166
	c-0.008,0.056-0.033,0.107-0.074,0.147c-0.01,0.007-0.017,0.017-0.02,0.029c0,0.01,0.002,0.02,0.008,0.029
	c0.019,0.057,0.015,0.12-0.012,0.174c-0.104-0.08-0.238-0.109-0.367-0.08c-0.038,0.003-0.074,0.019-0.104,0.044
	c-0.184,0.193-0.335,0.422-0.528,0.609c-0.082,0.08-0.174,0.149-0.251,0.236c-0.115,0.141-0.208,0.3-0.273,0.47
	c-0.051,0.133-0.117,0.26-0.199,0.377c-0.083,0.117-0.209,0.197-0.352,0.221c-0.134,0.011-0.267-0.035-0.365-0.126
	c-0.176-0.16-0.24-0.408-0.165-0.633c0.019-0.034,0.022-0.074,0.015-0.111c-0.012-0.021-0.026-0.039-0.045-0.053
	c-0.174-0.182-0.174-0.469,0-0.651c0.092-0.086,0.313-0.17,0.325-0.313s-0.115-0.284-0.063-0.448c0.02-0.05,0.047-0.097,0.082-0.137
	c0.065-0.097,0.155-0.176,0.26-0.229c0.105-0.036,0.217-0.054,0.329-0.053c0.359-0.025,0.735-0.137,0.972-0.412
	c0.054-0.071,0.112-0.138,0.176-0.2c0.074-0.058,0.159-0.1,0.25-0.126c0.217-0.083,0.457-0.086,0.677-0.01
	c0.155,0.065,0.271,0.197,0.317,0.358C32.079,18.043,32.077,18.123,32.044,18.192z"/>
<path fill="#FFFFFF" d="M32.004,18.786c-0.053-0.001-0.105-0.006-0.157-0.014c-0.016,0.029,0.053,0.137,0.068,0.146
	c0.015,0.013,0.037,0.013,0.052,0c0.007-0.009,0.011-0.019,0.013-0.029l0.024-0.104"/>
<circle fill="#231F20" cx="31.88" cy="18.511" r="0.041"/>
<path fill="#68E1FD" d="M32.801,19.019l0.06,0.011c0.037,0.007,0.061,0.043,0.055,0.081l-0.076,0.396
	c-0.007,0.038-0.043,0.062-0.08,0.055L32.7,19.549c-0.037-0.007-0.063-0.043-0.055-0.08l0.075-0.396
	C32.728,19.036,32.764,19.012,32.801,19.019z"/>
<path fill="#FCAB9A" d="M32.74,19.063c-0.073,0.008-0.136,0.056-0.163,0.125c-0.023,0.09,0.012,0.185,0.088,0.238
	c0.075,0.051,0.162,0.083,0.252,0.092c0.027,0.009,0.057,0.005,0.08-0.011c0.012-0.013,0.02-0.029,0.021-0.046
	c0.021-0.061,0.03-0.126,0.025-0.191C33.006,19.137,32.878,19.05,32.74,19.063z"/>
<path fill="#68E1FD" d="M32.491,18.768l-0.014,0.156c-0.01,0.043,0.017,0.085,0.06,0.096c0.263,0.019,0.521,0.085,0.759,0.198
	c0.129,0.073,0.252,0.156,0.367,0.25c0.047,0.037,0.113,0,0.125-0.08l0.121-0.823c0.012-0.073-0.041-0.124-0.096-0.096
	c-0.229,0.116-0.742,0.33-1.219,0.199C32.544,18.655,32.496,18.704,32.491,18.768z"/>
<path fill="#473F47" d="M30.495,25.851c-0.066,0.042-0.115,0.106-0.138,0.181c-0.007,0.023-0.007,0.048,0,0.071
	c0.01,0.021,0.024,0.039,0.042,0.053c0.22,0.195,0.467,0.357,0.732,0.48c0.034,0.018,0.07,0.028,0.108,0.031
	c0.038,0.005,0.075-0.012,0.099-0.042c0.014-0.022,0.02-0.047,0.02-0.073c0.006-0.192-0.146-0.354-0.338-0.359
	c-0.006,0-0.01,0-0.015,0c-0.034,0.002-0.067,0.002-0.102,0c-0.031-0.009-0.062-0.022-0.087-0.041
	c-0.072-0.043-0.141-0.092-0.203-0.146C30.571,25.956,30.532,25.904,30.495,25.851z"/>
</svg>
