<?xml version="1.0" encoding="utf-8"?>
<!-- Generator: Adobe Illustrator 16.0.0, SVG Export Plug-In . SVG Version: 6.00 Build 0)  -->
<!DOCTYPE svg PUBLIC "-//W3C//DTD SVG 1.1//EN" "http://www.w3.org/Graphics/SVG/1.1/DTD/svg11.dtd">
<svg version="1.1" id="Layer_1" xmlns="http://www.w3.org/2000/svg" xmlns:xlink="http://www.w3.org/1999/xlink" x="0px" y="0px"
	 width="42.938px" height="33.625px" viewBox="0 11.5 42.938 33.625" enable-background="new 0 11.5 42.938 33.625"
	 xml:space="preserve">
<title>4</title>
<path fill="#EAEAEA" d="M24.958,39.026c0.195,0.048,0.376,0.141,0.529,0.271c0.399,0.379,0.205,1.104-0.237,1.433
	s-1.025,0.379-1.575,0.429c-1.824,0.156-3.639,0.411-5.436,0.765c-1.749,0.345-3.523,0.782-5.318,0.716
	c-0.631-0.022-2.185-0.053-2.64-0.565c-0.586-0.659,0.665-1.423,1.187-1.784c2.146-1.491,4.665-1.152,7.146-1.527
	C20.715,38.443,22.911,38.365,24.958,39.026z"/>
<path fill="#EAEAEA" d="M33.834,35.436c-0.291,0.091-0.588,0.237-0.746,0.498c-0.076,0.154-0.138,0.316-0.182,0.484
	c-0.211,0.59-0.674,1.055-1.263,1.269c-0.167,0.06-0.354,0.106-0.457,0.253c-0.101,0.16-0.097,0.367,0.013,0.522
	c0.109,0.149,0.258,0.267,0.43,0.339c0.614,0.287,1.33,0.287,1.997,0.156s1.302-0.379,1.949-0.59
	c0.838-0.264,1.698-0.448,2.571-0.549c0.69-0.08,1.389-0.109,2.055-0.321c0.668-0.212,1.296-0.643,1.551-1.289
	c-0.825-0.847-2.146-0.95-3.322-0.858C36.926,35.463,35.308,34.979,33.834,35.436z"/>
<path fill="#EAEAEA" d="M4.566,34.221c-0.292,0.092-0.588,0.237-0.747,0.498c-0.077,0.155-0.139,0.317-0.183,0.484
	c-0.209,0.591-0.673,1.057-1.263,1.269c-0.166,0.06-0.353,0.106-0.458,0.253c-0.1,0.161-0.095,0.366,0.013,0.522
	c0.109,0.151,0.258,0.269,0.431,0.339c0.615,0.287,1.331,0.287,1.998,0.156s1.302-0.379,1.95-0.59
	c0.837-0.264,1.698-0.447,2.571-0.549c0.689-0.08,1.389-0.109,2.056-0.32c0.667-0.211,1.295-0.644,1.55-1.29
	c-0.826-0.847-2.146-0.949-3.322-0.858C7.657,34.244,6.038,33.755,4.566,34.221z"/>
<path fill="#EAEAEA" d="M16.764,32.523c-0.77,0.139-1.561,0.291-2.225,0.705c-0.229,0.141-0.451,0.34-0.483,0.604
	c-0.037,0.294,0.186,0.569,0.454,0.693c0.279,0.104,0.576,0.146,0.873,0.126l3.467,0.021l2.567,0.015c0.311,0,0.668-0.045,0.974,0
	c0.56,0.094,1.044,0.366,1.642,0.395c0.769,0.036,1.535-0.106,2.286-0.253c0.471-0.091,0.951-0.187,1.361-0.436
	c0.166-0.1,0.331-0.253,0.318-0.446c-0.018-0.117-0.074-0.225-0.162-0.303c-0.586-0.604-1.543-0.555-2.363-0.74
	c-0.871-0.197-1.658-0.7-2.54-0.847c-0.405-0.053-0.814-0.068-1.223-0.046c-0.729,0.018-1.464-0.079-2.183,0.033
	C18.603,32.2,17.685,32.369,16.764,32.523z"/>
<path fill="#FDB9A9" d="M21.468,31.324c-0.646-0.146-0.521,0.771-0.691,1.111c-0.106,0.174-0.241,0.328-0.399,0.458
	c-0.159,0.131-0.262,0.316-0.29,0.521c-0.004,0.037,0.004,0.076,0.022,0.109c0.031,0.041,0.076,0.068,0.126,0.078
	c0.369,0.107,0.765,0.068,1.106-0.109c0.159-0.076,0.292-0.199,0.379-0.353c0.07-0.165,0.104-0.343,0.097-0.521
	C21.838,32.236,22.007,31.443,21.468,31.324z"/>
<path fill="#68E1FD" d="M20.891,33.211c0,0-1.84,0.078-1.061,0.656s1.944-0.141,2.061-0.277c0.116-0.139,0.021-0.357,0.021-0.357
	L20.891,33.211z"/>
<path fill="#FFFFFF" d="M21.811,33.463c-0.164,0.199-1.029,0.469-1.41,0.441c-0.381-0.028-0.726-0.207-0.689-0.454
	s0.713-0.821,0.841-0.821c0.127,0.002,0.228,0.297,0.484,0.357c0.231,0.038,0.467-0.046,0.621-0.223
	c0.048-0.066,0.136-0.089,0.209-0.055C21.973,32.954,21.952,33.236,21.811,33.463z"/>
<path fill="#FDB9A9" d="M23.685,31.687c-0.646-0.15-0.521,0.767-0.691,1.106c-0.106,0.174-0.241,0.33-0.399,0.459
	c-0.158,0.132-0.261,0.316-0.291,0.521c-0.004,0.038,0.004,0.076,0.023,0.11c0.031,0.04,0.076,0.067,0.126,0.078
	c0.369,0.106,0.765,0.066,1.106-0.11c0.159-0.077,0.291-0.2,0.379-0.353c0.07-0.164,0.104-0.342,0.097-0.521
	C24.055,32.59,24.224,31.801,23.685,31.687z"/>
<path fill="#68E1FD" d="M23.113,33.565c0,0-1.839,0.077-1.061,0.656c0.779,0.579,1.943-0.142,2.056-0.272s0.021-0.359,0.021-0.359
	L23.113,33.565z"/>
<path fill="#FFFFFF" d="M24.028,33.815c-0.164,0.2-1.028,0.468-1.41,0.442c-0.383-0.027-0.726-0.207-0.689-0.454
	s0.713-0.823,0.841-0.82s0.229,0.296,0.483,0.354c0.232,0.039,0.468-0.045,0.623-0.223c0.047-0.064,0.135-0.088,0.208-0.054
	C24.19,33.307,24.169,33.588,24.028,33.815z"/>
<path fill="#473F47" d="M22.018,23.343l0.865,9.091l1.245-0.154c0.493-2.218,0.372-8.858,0.372-8.858L22.018,23.343z"/>
<path fill="#473F47" d="M22.883,23.097l-0.865,9.091l-1.253-0.15c-0.712-5.755-0.126-9.343-0.126-9.343L22.883,23.097z"/>
<path fill="#FF727D" d="M20.754,19.807c-0.015-0.167-0.06-0.332-0.077-0.505c-0.041-0.344-0.034-0.691,0.019-1.033
	c0.059-0.363,0.168-0.717,0.326-1.049c0.144-0.289,0.403-0.412,0.696-0.556c0.244-0.132,0.509-0.223,0.783-0.267
	c0.194-0.017,0.39-0.006,0.581,0.033c0.587,0.111,1.361,0.414,1.768,0.884c0.302,0.347,0.337,0.846,0.346,1.307
	c0.012,0.635,0,1.27-0.04,1.904c0,0.092-0.01,0.184-0.018,0.276c-0.054,0.696-0.111,1.418-0.309,2.091
	c-0.062,0.211-0.126,0.423-0.323,0.537c-0.46,0.267-1.163,0.126-1.659,0.051c-0.658-0.094-1.335-0.191-1.918-0.505
	c-0.122-0.053-0.221-0.148-0.278-0.268c-0.051-0.143,0.011-0.298,0.056-0.443c0.197-0.65,0.044-1.333,0.044-1.997
	c0-0.12,0.015-0.242,0.015-0.362C20.765,19.868,20.754,19.837,20.754,19.807z"/>
<path opacity="0.1" fill="#020202" enable-background="new    " d="M22.353,17.239c0.065-0.125,0.143-0.242,0.232-0.35
	c0.012-0.015,0.026-0.026,0.043-0.034c0.016-0.004,0.032-0.004,0.047,0l0.563,0.089c0.026,0.001,0.052,0.01,0.073,0.025
	c0.018,0.015,0.031,0.036,0.038,0.058c0.035,0.136,0.016,0.279-0.053,0.401c-0.164,0.315-0.358,0.614-0.58,0.893
	c-0.126,0.17-0.234,0.354-0.322,0.547c-0.042,0.097-0.056,0.207-0.096,0.304c-0.04,0.097-0.126,0.047-0.198,0.03l-0.869-0.183
	l-0.434-0.091c-0.063-0.013-0.112-0.013-0.08-0.087c0.023-0.044,0.063-0.078,0.111-0.092c0.068-0.017,0.138-0.028,0.208-0.033
	c0.144-0.036,0.279-0.101,0.396-0.192c0.093-0.06,0.181-0.126,0.264-0.2C22.011,18.04,22.153,17.615,22.353,17.239z"/>
<path fill="#FF727D" d="M21.407,16.685c0.059-0.08,0.138-0.142,0.229-0.182c0.206-0.071,0.41,0.103,0.623,0.151
	c0.159,0.036,0.357,0.015,0.452,0.149c0.057,0.115,0.057,0.25,0,0.366c-0.178,0.571-0.397,1.128-0.656,1.667
	c-0.104,0.216-0.239,0.409-0.349,0.616c-0.126,0.229-0.153,0.47-0.331,0.674c-0.178,0.205-0.505,0.348-0.769,0.244
	c-0.132-0.058-0.244-0.154-0.322-0.275c-0.33-0.476-0.1-0.983,0.082-1.461C20.497,18.298,21.341,16.758,21.407,16.685z"/>
<path opacity="0.1" fill="#020202" enable-background="new    " d="M24.247,23.506c-0.221,0.04-0.484,0.199-0.712,0.156
	c-0.253-0.121-0.528-0.194-0.808-0.216c-0.379-0.044-0.774-0.216-1.136-0.332c-0.153-0.035-0.295-0.107-0.413-0.211
	c-0.221-0.23-0.155-0.599-0.11-0.914c0.065-0.461,0.056-0.931-0.029-1.389c-0.033-0.216-0.089-0.427-0.168-0.631
	c-0.069-0.159-0.178-0.263-0.152-0.452c0.023-0.167,0.138-0.363,0.325-0.379c0.099,0.003,0.195,0.033,0.279,0.086
	c0.237,0.127,0.493,0.217,0.757,0.266c0.658,0.082,1.303-0.224,1.658-0.783c0.173-0.273,0.345-1.532,0.829-1.357
	c0.316,0.135,0.557,0.402,0.658,0.731c0.095,0.328,0.134,0.669,0.116,1.01c-0.01,0.884-0.186,1.787-0.298,2.665
	c-0.044,0.332-0.096,1.565-0.536,1.674C24.417,23.448,24.333,23.488,24.247,23.506z"/>
<path fill="#FDB9A9" d="M21.112,18.586c-0.164-0.102-0.369-0.115-0.544-0.034c-0.173,0.087-0.284,0.263-0.288,0.457
	c0.008,0.13,0.052,0.254,0.126,0.361c0.041,0.07,0.095,0.13,0.161,0.178c0.104,0.062,0.225,0.087,0.345,0.072
	c0.108-0.004,0.214-0.033,0.309-0.085c0.142-0.08,0.325-0.307,0.278-0.485C21.418,18.861,21.284,18.7,21.112,18.586z"/>
<path fill="#FF727D" d="M25.007,17.494c0.533,0.884,0.719,1.923,0.894,2.938c0.031,0.124,0.037,0.253,0.018,0.379
	c-0.068,0.228-0.251,0.402-0.482,0.458c-0.227,0.053-0.461,0.065-0.692,0.037c-0.496-0.032-1.084-0.075-1.505-0.362
	c-0.145-0.099-0.273-0.221-0.42-0.316c-0.144-0.084-0.294-0.159-0.448-0.223c-0.294-0.137-0.575-0.301-0.838-0.49
	c-0.091-0.056-0.166-0.133-0.22-0.225c-0.086-0.172-0.019-0.379,0.048-0.556c0.012-0.046,0.04-0.086,0.078-0.115
	c0.053-0.021,0.112-0.021,0.165,0c0.71,0.211,1.434,0.373,2.167,0.485c0.201,0.031,0.112-0.189,0.086-0.304
	c-0.044-0.161-0.08-0.324-0.106-0.489c-0.053-0.481,0.136-0.958,0.505-1.271c0.093-0.087,0.212-0.143,0.338-0.159
	C24.755,17.289,24.906,17.367,25.007,17.494z"/>
<path fill="#FDB9A9" d="M22.313,15.426c-0.019-0.088-0.033-0.177-0.041-0.266c-0.043-0.379-0.08-0.773,0.106-1.099
	c0.239-0.426,0.778-0.577,1.204-0.338c0.142,0.08,0.259,0.196,0.338,0.338c0.108,0.204,0.155,0.435,0.135,0.666
	c-0.021,0.229-0.063,0.456-0.126,0.677c-0.061,0.235-0.215,0.379-0.303,0.595c-0.03,0.093-0.044,0.19-0.042,0.288
	c0.013,0.146,0.013,0.292,0,0.438c-0.144,0.094-0.309,0.153-0.48,0.17c-0.08-0.001-0.16-0.015-0.236-0.041
	c-0.043-0.009-0.081-0.034-0.106-0.069c-0.011-0.032-0.014-0.066-0.007-0.099c0-0.032,0.007-0.062,0.007-0.093
	c0.018-0.158,0.016-0.317-0.007-0.474c-0.051-0.123-0.136-0.229-0.244-0.306C22.406,15.708,22.337,15.573,22.313,15.426z"/>
<path opacity="0.1" fill="#020202" enable-background="new    " d="M22.406,15.598c0.171-0.021,0.34-0.056,0.505-0.103
	c0.057-0.016,0.126-0.03,0.169,0.01c0.02,0.022,0.032,0.049,0.038,0.079c0.021,0.056,0.03,0.116,0.028,0.177
	c-0.01,0.05-0.024,0.1-0.042,0.147c-0.016,0.049-0.011,0.102,0.014,0.146c0.04,0.056,0.126,0.073,0.145,0.14s-0.03,0.093-0.045,0.14
	c-0.017,0.056-0.028,0.114-0.034,0.172c-0.001,0.067-0.011,0.134-0.03,0.198c-0.028,0.067-0.085,0.117-0.155,0.136
	c-0.071,0.017-0.146,0.001-0.203-0.043c-0.073-0.079-0.118-0.18-0.126-0.287l-0.068-0.339c-0.021-0.119-0.051-0.235-0.091-0.348
	c-0.041-0.078-0.088-0.153-0.141-0.223L22.406,15.598z"/>
<path fill="#2F3554" d="M11.657,22.113c0,0,0.079,0.317-0.673,0.554c-0.751,0.238-1.029-0.554-1.029-0.554
	S11.379,21.559,11.657,22.113z"/>
<path fill="#EFAC88" d="M7.793,30.122l0.087-0.335l0.227-0.862c0.007-0.041,0.025-0.079,0.053-0.11
	c0.034-0.028,0.14,0.299,0.186,0.295c0.248-0.014,0.497,0.004,0.74,0.055c0.066,0.012-0.201,3.719-0.223,4.083
	c-0.055,0.833-0.01,2.481,0.112,2.472c-0.244,0.02-0.743,0.047-0.847-0.063c-0.189-0.189,0.135-1.41-0.219-2.844
	c-0.087-0.352-0.135-0.713-0.144-1.076C7.751,31.211,7.663,30.635,7.793,30.122z"/>
<path fill="#EFAC88" d="M9.536,34.246c0.028-0.051,0.05-0.103,0.068-0.156c0.058-0.186,0.014-0.379,0.026-0.566
	c0.007-0.099,0.007-0.197,0-0.297c-0.02-0.252-0.053-0.505-0.084-0.758c-0.055-0.425-0.154-0.868-0.154-1.299
	c0-0.332,0.268-1.375,0.268-1.375l-0.268-1.359h1.359c0,0,0.174,1.136,0.126,1.262c-0.099,0.258-0.157,0.53-0.173,0.807
	c0,0.488-0.066,0.982-0.104,1.471c-0.043,0.533-0.085,1.065-0.126,1.598c-0.015,0.192-0.031,0.379-0.046,0.575
	c-0.012,0.282,0.041,0.563,0.153,0.821c0.042,0.118,0.091,0.264,0.009,0.359s-0.262,0.063-0.379,0
	c-0.167-0.112-0.344-0.209-0.528-0.289c-0.073-0.018-0.143-0.045-0.207-0.085c-0.126-0.096-0.126-0.288-0.068-0.436
	C9.445,34.426,9.488,34.334,9.536,34.246z"/>
<path fill="#2F3554" d="M10.411,18.337c0,0-0.154-0.406,0.196,0c0.35,0.407,0.912,2.811,0.912,2.811s-0.787,0.722-1.01,0.58
	C10.284,21.585,10.411,18.337,10.411,18.337z"/>
<path fill="#8B2F0C" d="M10.073,14.503c0.441,0.182,0.548,0.834,0.517,1.248c-0.039,0.516-0.472,1.033-0.323,1.552
	c0.097,0.266,0.143,0.548,0.134,0.831c-0.028,0.282-0.202,0.57-0.476,0.631c-0.065,0.009-0.129,0.026-0.19,0.051
	c-0.078,0.056-0.139,0.134-0.174,0.224c-0.255,0.516-0.705,0.91-1.25,1.096c-0.544,0.166-1.188,0.038-1.573-0.379
	c-0.385-0.417-0.446-1.125-0.08-1.559c0.105-0.126,0.246-0.241,0.252-0.403c-0.003-0.075-0.015-0.149-0.034-0.221
	c-0.042-0.287,0.105-0.568,0.364-0.699c0.205-0.099,0.465-0.094,0.623-0.252c0.177-0.183,0.134-0.475,0.126-0.729
	C7.908,14.565,8.909,14.024,10.073,14.503z"/>
<path fill="#68E1FD" d="M7.202,25.592c-0.106,1.035,0.078,2.095,0.264,3.127c0.042,0.242,0.096,0.506,0.276,0.672
	c0.142,0.114,0.311,0.189,0.49,0.22c1.178,0.272,2.413,0.144,3.509-0.366l-0.279-2.576c-0.073-0.686-0.153-1.388-0.399-2.035
	c-0.045-0.12-0.758-1.312-0.588-1.414c-0.336,0.207-0.726,0.177-1.111,0.266c-0.456,0.107-0.894,0.277-1.303,0.505
	c-0.426,0.188-0.721,0.587-0.774,1.05C7.249,25.223,7.22,25.407,7.202,25.592z"/>
<linearGradient id="SVGID_1_" gradientUnits="userSpaceOnUse" x1="2273.8242" y1="2845.2617" x2="2325.0642" y2="2841.6018" gradientTransform="matrix(0.1263 0 0 0.1263 -281.8951 -332.4283)">
	<stop  offset="0.01" style="stop-color:#000000"/>
	<stop  offset="0.08" style="stop-color:#000000;stop-opacity:0.69"/>
	<stop  offset="0.21" style="stop-color:#000000;stop-opacity:0.32"/>
	<stop  offset="1" style="stop-color:#000000;stop-opacity:0"/>
</linearGradient>
<path fill="url(#SVGID_1_)" d="M7.202,25.592c-0.106,1.035,0.078,2.095,0.264,3.127c0.042,0.242,0.096,0.506,0.276,0.672
	c0.142,0.114,0.311,0.189,0.49,0.22c1.178,0.272,2.413,0.144,3.509-0.366l-0.279-2.576c-0.073-0.686-0.153-1.388-0.399-2.035
	c-0.045-0.12-0.758-1.312-0.588-1.414c-0.336,0.207-0.726,0.177-1.111,0.266c-0.456,0.107-0.894,0.277-1.303,0.505
	c-0.426,0.188-0.721,0.587-0.774,1.05C7.249,25.223,7.22,25.407,7.202,25.592z"/>
<path fill="#EFAC88" d="M10.051,17.239c0,0-0.342,0.434-0.343,0.701c-0.004,0.176-0.028,0.352-0.072,0.522
	c0,0-0.054,0.318-0.231,0.195C9.228,18.533,8.606,17.7,8.606,17.7l0.678-0.904L10.051,17.239z"/>
<path fill="#2F3554" d="M11.104,24.912c0,0-0.139-1.546-0.396-2.167c-0.072-0.225-0.089-0.463-0.051-0.696
	c0.052-0.548,0.219-1.073,0.308-1.615c0.027-0.243,0.009-0.488-0.053-0.724c-0.095-0.47-0.205-0.936-0.331-1.399
	c-0.011-0.06-0.037-0.116-0.074-0.163c-0.043-0.039-0.095-0.068-0.15-0.084l-0.676-0.252c0.071,0.217,0.138,0.459,0.041,0.667
	c-0.024,0.061-0.069,0.11-0.126,0.14c-0.126,0.052-0.252-0.032-0.354-0.126c-0.153-0.148-0.271-0.329-0.346-0.529
	c-0.038-0.104-0.064-0.212-0.08-0.322c-0.01-0.079,0.013-0.192-0.047-0.247c-0.096,0.169-0.294,0.253-0.444,0.37
	s-0.343,0.252-0.525,0.379c-0.151,0.082-0.275,0.208-0.354,0.361c-0.04,0.129-0.04,0.268,0,0.396
	c0.031,0.144,0.081,0.284,0.107,0.429c0.025,0.185,0.041,0.371,0.046,0.557c0.03,0.277,0.08,0.552,0.147,0.822
	c0.026,0.166,0.041,0.332,0.047,0.499c0,0,0.252,0.939,0.202,1.169c-0.051,0.23-0.523,1.118-0.549,1.506
	c-0.027,0.389,0.151,1.206,0.151,1.206s0.437,0.029,0.922,0.048c0.571,0.021,1.606-0.22,1.683-0.296
	c0.101-0.101,0.156-0.822,0.147-1.303c0.23,0.748,0.411,1.374,0.411,1.374H11.104z"/>
<path fill="#FDC099" d="M7.743,25.857c0.095,0.028,0.126,0.113,0.197,0.219c0.095,0.148,0.182,0.3,0.262,0.456
	c0.022,0.022,0.022,0.06,0,0.082c-0.01,0.009-0.021,0.015-0.034,0.015c-0.081,0.029-0.168,0.037-0.252,0.021
	c-0.033,0.203-0.002,0.41,0.088,0.594c0.021,0.045,0.044,0.104,0.009,0.139c-0.017,0.014-0.036,0.021-0.057,0.021
	c-0.18,0.012-0.36-0.032-0.515-0.126c-0.09-0.04-0.172-0.095-0.242-0.163c-0.096-0.113-0.166-0.246-0.206-0.39
	c0-0.091,0.009-0.183,0.027-0.271c0-0.042,0.042-0.586,0.055-0.586l0.586-0.022C7.688,25.846,7.716,25.85,7.743,25.857z"/>
<polygon fill="#FFFFFF" points="7.747,25.643 7.793,25.878 6.979,26.02 6.979,25.748 "/>
<path fill="#2F3554" d="M7.747,22.537c0,0,0.647-1.558,0.559-2.107S7.845,18.599,7.57,18.61c-0.275,0.011-0.363,0.379-0.363,0.72
	s-0.553,3.416-0.588,3.7c-0.035,0.284,0.312,2.904,0.312,2.904l0.922-0.203L7.747,22.537z"/>
<path fill="#FDC099" d="M10.225,14.936c0.015,0.009,0.028,0.02,0.038,0.034c0.066,0.113,0.109,0.239,0.126,0.369
	c0.178,0.631,0.42,1.232,0.073,1.858c-0.025,0.052-0.061,0.097-0.105,0.134c-0.045,0.031-0.097,0.052-0.151,0.061
	c-0.256,0.053-0.522,0.011-0.749-0.119c-0.13-0.062-0.257-0.131-0.379-0.207c-0.053-0.037-0.096-0.086-0.126-0.144
	c-0.028-0.06-0.073-0.118-0.054-0.187c0.014-0.048,0.042-0.09,0.052-0.139c0.01-0.077-0.004-0.155-0.041-0.223
	c-0.018-0.03-0.022-0.065-0.013-0.099c0.023-0.054,0.099-0.05,0.157-0.064c0.096-0.036,0.171-0.112,0.207-0.208
	c0.056-0.113,0.098-0.232,0.126-0.354c0.018-0.106,0.048-0.209,0.091-0.308c0.084-0.136,0.207-0.244,0.351-0.311
	C9.928,14.97,10.115,14.868,10.225,14.936z"/>
<path fill="#8A3C1F" d="M10.507,15.854l0.057-0.049c0,0,0.017,0.035,0.037,0.032c0.018-0.005,0.035-0.012,0.052-0.021
	c0,0-0.032,0.045-0.053,0.049c-0.03,0.004-0.06,0.004-0.089,0L10.507,15.854z"/>
<path fill="#8A3C1F" d="M10.556,15.809l0.024-0.043c0,0,0.019,0.018,0.031,0.01c0.01-0.007,0.019-0.015,0.026-0.024
	c0,0-0.007,0.036-0.02,0.043c-0.019,0.008-0.039,0.014-0.059,0.018L10.556,15.809z"/>
<polygon fill="#68E1FD" points="13.33,19.897 10.967,19.897 8.942,22.458 11.171,22.368 "/>
<path fill="#EFAC88" d="M11.926,21.992c0.003-0.025,0.008-0.049,0.014-0.073c0.03-0.159,0.026-0.322-0.012-0.479
	c-0.039-0.158-0.135-0.296-0.271-0.385c-0.01-0.006-0.021-0.011-0.033-0.015c-0.038,0-0.068,0.029-0.07,0.067
	c0,0.037,0.008,0.072,0.024,0.105c0.042,0.104,0.071,0.212,0.087,0.323l-0.119-0.135c-0.033-0.044-0.076-0.08-0.126-0.102
	c-0.054-0.021-0.115,0.004-0.138,0.058c-0.006,0.031-0.002,0.063,0.012,0.092l0.111,0.322c-0.052-0.103-0.134-0.188-0.236-0.241
	c-0.042,0.057-0.042,0.135,0,0.192c0.041,0.058,0.075,0.12,0.103,0.185c-0.026-0.032-0.051-0.065-0.072-0.1
	c-0.027-0.031-0.077-0.052-0.107-0.024s-0.021,0.067-0.011,0.101c0.076,0.241,0.106,0.495,0.088,0.748l0.142-0.032
	c0.112-0.037,0.218-0.09,0.314-0.158C11.787,22.343,11.897,22.179,11.926,21.992z"/>
<path fill="#A67C52" d="M26.664,21.781c0.043-0.037,0.109-0.064,0.152-0.028c0.027,0.03,0.039,0.07,0.034,0.11v0.226
	c0.385-0.117,0.675-0.427,0.958-0.712c0.06-0.061,0.146-0.126,0.22-0.083c0.054,0.04,0.078,0.109,0.06,0.174
	c-0.021,0.061-0.037,0.124-0.045,0.188c0,0.104,0.075,0.193,0.086,0.295c0.011,0.126-0.075,0.24-0.086,0.366v0.126
	c-0.02,0.077-0.058,0.148-0.11,0.207c-0.127,0.192-0.296,0.352-0.493,0.47c-0.137,0.059-0.279,0.098-0.426,0.115l-0.459,0.078
	c-0.045,0.012-0.092,0.012-0.137,0c-0.137-0.046-0.18-0.271-0.175-0.395c0.021-0.115,0.063-0.226,0.126-0.324
	C26.464,22.332,26.436,21.973,26.664,21.781z"/>
<path fill="#A67C52" d="M13.1,20.39c-0.03-0.048-0.086-0.094-0.138-0.072c-0.034,0.021-0.058,0.055-0.065,0.095l-0.07,0.215
	c-0.333-0.226-0.519-0.607-0.703-0.965c-0.039-0.076-0.102-0.163-0.186-0.144c-0.062,0.023-0.102,0.083-0.101,0.149
	c0.002,0.064-0.003,0.129-0.014,0.192c-0.03,0.099-0.126,0.163-0.169,0.253c-0.048,0.116,0,0.252-0.026,0.378
	c-0.009,0.041-0.026,0.08-0.033,0.126c-0.005,0.079,0.01,0.158,0.044,0.23c0.063,0.221,0.177,0.425,0.331,0.596
	c0.112,0.096,0.237,0.176,0.371,0.236l0.416,0.211c0.038,0.022,0.082,0.037,0.126,0.04c0.146,0,0.252-0.205,0.286-0.324
	c0.015-0.116,0.009-0.233-0.019-0.346C13.126,20.975,13.259,20.646,13.1,20.39z"/>
<path fill="#262836" d="M17.044,40.933c0.002,0.011,0.005,0.021,0.01,0.029c0.057,0.146,0.237,0.196,0.394,0.214
	c0.146,0.017,0.292,0.023,0.439,0.021c0.07,0.002,0.139-0.009,0.206-0.029c0.063-0.027,0.121-0.063,0.173-0.105l0.421-0.313
	c0.119-0.081,0.228-0.178,0.322-0.285c0.095-0.109,0.145-0.252,0.139-0.396c-0.008-0.148-0.11-0.274-0.252-0.313
	c-0.088-0.009-0.177-0.007-0.265,0.007c-0.181,0.01-0.433-0.064-0.505-0.252c-0.019-0.08-0.063-0.15-0.126-0.203
	c-0.062-0.027-0.13-0.035-0.196-0.023c-0.147,0.006-0.292,0.035-0.431,0.086c-0.14,0.05-0.25,0.161-0.298,0.303
	c-0.017,0.064-0.023,0.131-0.019,0.197c0.008,0.137,0.008,0.274,0,0.411c-0.021,0.171-0.03,0.345-0.029,0.518
	C17.029,40.844,17.035,40.889,17.044,40.933z"/>
<path fill="#262836" d="M21.143,40.986c-0.284,0.129-0.576,0.241-0.875,0.333c-0.12,0.052-0.254,0.06-0.378,0.021
	c-0.101-0.05-0.174-0.144-0.2-0.253c-0.027-0.106-0.038-0.217-0.033-0.326c0-0.184,0.076-0.325,0.104-0.5
	c0.027-0.15,0.048-0.304,0.07-0.455c0.03-0.217,0.058-0.435,0.085-0.652l0.758,0.162c0.08,0.017,0.155,0.323,0.202,0.388
	c0.073,0.097,0.185,0.155,0.306,0.161c0.126,0.006,0.261-0.054,0.391-0.032c0.172,0.042,0.295,0.194,0.301,0.371
	c-0.002,0.175-0.077,0.34-0.205,0.457c-0.128,0.115-0.274,0.208-0.433,0.275L21.143,40.986z"/>
<path fill="#68E1FD" d="M21.149,40.139c-0.199,0.113-0.406,0.213-0.619,0.297l-0.021,0.009c-0.351,0.136-0.744-0.414-0.744-0.414
	s-0.496-3.065-0.474-4.336c0.015-0.872-0.19-2.116-0.505-4.373c-0.078,2.305-0.468,3.317-0.369,4.144
	c0.151,1.256-0.029,4.376-0.029,4.376s-0.332,0.607-0.697,0.524h-0.021c-0.219-0.049-0.435-0.115-0.644-0.197
	c0,0-0.424-4.293-0.424-5.43s0.047-2.146,0.047-2.146l-0.221-3.59l0.945-1.373l0.077-0.032l0.073-0.071l1.048-0.77
	c0,0,0,0.18-0.019,0.486l0.813,0.437l0.08,0.06l0.08,0.02l1.365,0.239c0,0,0.359,5.503,0.474,6.629S21.149,40.139,21.149,40.139z"/>
<linearGradient id="SVGID_2_" gradientUnits="userSpaceOnUse" x1="2342.0508" y1="2845.7773" x2="2437.7817" y2="2979.8086" gradientTransform="matrix(0.1263 0 0 0.1263 -281.8951 -332.4283)">
	<stop  offset="0.01" style="stop-color:#000000"/>
	<stop  offset="0.08" style="stop-color:#000000;stop-opacity:0.69"/>
	<stop  offset="0.21" style="stop-color:#000000;stop-opacity:0.32"/>
	<stop  offset="1" style="stop-color:#000000;stop-opacity:0"/>
</linearGradient>
<path fill="url(#SVGID_2_)" d="M21.149,40.139c-0.199,0.113-0.406,0.213-0.619,0.297l-0.021,0.009
	c-0.351,0.136-0.744-0.414-0.744-0.414s-0.496-3.065-0.474-4.336c0.015-0.872-0.19-2.116-0.505-4.373
	c-0.078,2.305-0.468,3.317-0.369,4.144c0.151,1.256-0.029,4.376-0.029,4.376s-0.332,0.607-0.697,0.524h-0.021
	c-0.219-0.049-0.435-0.115-0.644-0.197c0,0-0.424-4.293-0.424-5.43s0.047-2.146,0.047-2.146l-0.221-3.59l0.945-1.373l0.077-0.032
	l0.073-0.071l1.048-0.77c0,0,0,0.18-0.019,0.486l0.813,0.437l0.08,0.06l0.08,0.02l1.365,0.239c0,0,0.359,5.503,0.474,6.629
	S21.149,40.139,21.149,40.139z"/>
<path fill="#A67C52" d="M20.018,18.421c0.086,0.086,0.215,0.174,0.179,0.288c-0.019,0.061-0.083,0.096-0.126,0.139
	c-0.125,0.126-0.193,0.296-0.191,0.474c0.005,0.171-0.019,0.342-0.072,0.505c-0.061,0.168-0.231,0.271-0.409,0.246
	c-0.1-0.027-0.199-0.113-0.295-0.073c-0.073,0.032-0.096,0.126-0.134,0.189c-0.111,0.166-0.307,0.254-0.505,0.228
	c-0.193-0.028-0.38-0.092-0.549-0.188c-0.073-0.028-0.136-0.076-0.181-0.14c-0.029-0.061-0.037-0.13-0.02-0.196
	c0.035-0.201,0.174-0.366,0.287-0.54c0.208-0.319,0.333-0.687,0.363-1.067c0.021-0.265,0-0.557,0.17-0.757
	c0.231-0.279,0.79-0.276,1.076-0.072C19.941,17.667,19.754,18.147,20.018,18.421z"/>
<path fill="#2F3554" d="M19.676,17.22c-0.034,0.066-0.084,0.121-0.147,0.16c-0.126,0.075-0.235,0.162-0.357,0.244
	c-0.116,0.078-0.197,0.197-0.227,0.333c-0.052,0.252,0.084,0.517,0,0.758c-0.029,0.048-0.11,0.019-0.143-0.029
	c-0.033-0.048-0.049-0.108-0.098-0.138c-0.083-0.048-0.186,0.033-0.221,0.126c-0.077,0.217,0.031,0.456,0.244,0.542
	c-0.011,0.077-0.112,0.109-0.19,0.097c-0.078-0.021-0.158-0.031-0.239-0.03c-0.181,0.034-0.252,0.292-0.429,0.318
	c-0.126-0.009-0.241-0.076-0.312-0.181l-0.22-0.252c-0.035-0.045-0.073-0.087-0.115-0.126c-0.049-0.039-0.126-0.042-0.172-0.088
	c-0.045-0.046,0-0.154-0.044-0.212c-0.022-0.02-0.048-0.036-0.076-0.045c-0.131-0.066-0.197-0.214-0.159-0.355
	c0.005-0.017,0.005-0.036,0-0.053c-0.008-0.023-0.036-0.034-0.058-0.046c-0.139-0.087-0.193-0.263-0.126-0.413
	c0.036-0.084,0.087-0.161,0.153-0.225c0.049-0.071,0.134-0.108,0.22-0.098l0.034-0.315c0.003-0.064,0.018-0.127,0.045-0.186
	c0.072-0.126,0.237-0.159,0.379-0.176l-0.061-0.263c-0.015-0.032-0.015-0.069,0-0.102c0.019-0.023,0.046-0.039,0.076-0.044
	c0.085-0.023,0.172-0.037,0.26-0.043c-0.033-0.073-0.058-0.149-0.074-0.228c-0.004-0.015-0.004-0.03,0-0.045
	c0.015-0.029,0.047-0.045,0.08-0.042c0.032,0.006,0.065,0.006,0.097,0c0,0-0.048-0.22-0.051-0.24
	c-0.015-0.069-0.002-0.142,0.037-0.202c0.052-0.063,0.133-0.093,0.213-0.08c0.079,0.014,0.154,0.042,0.224,0.081
	c-0.007-0.084,0.101-0.126,0.188-0.134c0.33-0.019,0.646,0.133,0.839,0.401c0.015,0.024,0.032,0.045,0.053,0.064
	c0.039,0.025,0.082,0.044,0.126,0.056c0.138,0.062,0.241,0.182,0.281,0.327c0.037,0.144,0.052,0.292,0.044,0.439
	c0.004,0.113-0.007,0.227-0.032,0.337C19.707,17.152,19.693,17.187,19.676,17.22z"/>
<path fill="#FFFFFF" d="M18.478,19.953c0.201,0.084,0.396,0.182,0.583,0.292c0.058,0.031,0.108,0.074,0.148,0.126
	c0.042,0.059,0.049,0.136,0.02,0.202c-0.053,0.091-0.172,0.057-0.264,0.025c-0.426-0.169-0.884-0.184-1.321-0.183
	c-0.062,0.009-0.123-0.017-0.159-0.067c-0.021-0.059-0.015-0.125,0.018-0.179C17.734,19.71,18.105,19.783,18.478,19.953z"/>
<path fill="#FCB400" d="M26.73,23.507c-0.087,0.217-0.216,0.415-0.379,0.582c-0.155,0.176-0.316,0.345-0.484,0.505
	c-0.396,0.384-0.813,0.744-1.251,1.078c-0.312,0.242-0.646,0.479-1.034,0.555c-0.155,0.037-0.317,0.027-0.466-0.029
	c-0.124-0.063-0.234-0.148-0.326-0.252c-0.112-0.111-1.4-1.594-1.421-1.594c-0.073,0.039-0.129,0.104-0.158,0.181
	c-0.187,0.385-0.302,0.8-0.339,1.226c-0.015,0.191-0.015,0.383,0,0.574c0.05,0.646,0.278,1.314,0.053,1.926
	c-0.043,0.131-0.118,0.248-0.216,0.344c-0.095,0.082-0.204,0.146-0.322,0.189c-0.208,0.086-0.424,0.148-0.646,0.185
	c-0.125,0.022-0.251,0.036-0.378,0.042c-0.471,0.018-0.941-0.074-1.412-0.051c-0.402,0.02-0.798,0.126-1.2,0.109
	c-0.15,0.012-0.297-0.043-0.401-0.151c-0.045-0.069-0.074-0.149-0.083-0.231c-0.156-0.859-0.237-1.729-0.241-2.602
	c0-0.402-0.066-1.875-0.201-2.146c-0.016-0.033-0.034-0.049-0.052-0.044c-0.449,0.126-1.414,0.379-1.871,0.459
	c-0.066,0.016-0.135,0.02-0.202,0.01c-0.069-0.018-0.134-0.05-0.189-0.096c-0.565-0.415-0.884-1.034-1.084-1.686
	c-0.039-0.126-0.074-0.252-0.107-0.379c-0.072-0.141-0.016-0.313,0.125-0.385c0,0,0.001,0,0.001-0.001
	c0.007-0.004,0.016-0.008,0.024-0.011l0.847-0.545l0.631,0.806c0.126,0.156,0.271,0.326,0.471,0.348
	c0.275,0.028,0.482-0.222,0.651-0.436c0.548-0.689,1.252-1.239,2.053-1.605c0.117-0.056,0.241-0.099,0.369-0.126l0.032-0.008
	c0.018-0.005,0.037-0.009,0.055-0.011c0.165-0.015,0.331-0.005,0.493,0.029c1.075,0.181,2.139,0.425,3.186,0.731
	c0.254,0.038,0.475,0.194,0.595,0.421c0.294,0.443,0.581,0.892,0.876,1.335c0.252,0.379,0.505,0.858,0.884,1.136
	c0.819-0.332,1.592-0.768,2.3-1.297c0.1-0.074,0.227-0.155,0.342-0.106c0.036,0.018,0.068,0.043,0.097,0.073
	C26.622,22.83,26.867,23.095,26.73,23.507z"/>
<path fill="#412A7C" d="M32.858,20.539c-0.112,0.096-0.248,0.161-0.394,0.188c-0.132,0.005-0.264-0.018-0.387-0.068l-1.879-0.631
	c-0.294,0.229-0.361,0.646-0.154,0.956c0.159,0.221,0.434,0.326,0.689,0.418l1.288,0.463c0.253,0.104,0.52,0.173,0.792,0.203
	c0.379,0.025,0.748-0.096,1.107-0.216c0.386-0.126,0.808-0.287,0.992-0.649c0.184-0.362,0.051-0.84,0.104-1.263
	c0.036-0.275,0.157-0.539,0.153-0.817c-0.007-0.237-0.196-0.595-0.479-0.545c-0.244,0.043-0.407,0.467-0.536,0.645
	C33.795,19.726,33.356,20.169,32.858,20.539z"/>
<path fill="#FDB9A9" d="M29.965,19.925c-0.021-0.05-0.052-0.096-0.089-0.135c-0.04-0.039-0.099-0.051-0.15-0.031
	c-0.05,0.031-0.079,0.088-0.072,0.147c0.003,0.02-0.001,0.04-0.013,0.057c-0.017,0.012-0.039,0.015-0.058,0.007
	c-0.214-0.042-0.43-0.073-0.646-0.095c-0.019-0.002-0.036-0.002-0.055,0c-0.073,0.026-0.114,0.104-0.092,0.179
	c0.023,0.072,0.06,0.139,0.104,0.198c0.109,0.181,0.152,0.419,0.328,0.537c0.107,0.063,0.232,0.088,0.356,0.075
	c0.126-0.006,0.246-0.029,0.37-0.024c0.082,0.018,0.168,0.008,0.244-0.027c0.059-0.043,0.09-0.113,0.085-0.186
	c-0.013-0.111-0.053-0.218-0.117-0.311C30.093,20.188,30.027,20.057,29.965,19.925z"/>
<path fill="#FDB9A9" d="M35.204,34.07c-0.72-0.163-0.578,0.858-0.768,1.237c-0.12,0.191-0.271,0.362-0.444,0.505
	c-0.163,0.159-0.316,0.354-0.324,0.58c-0.006,0.043,0.004,0.088,0.025,0.126c0.036,0.044,0.086,0.074,0.143,0.086
	c0.411,0.118,0.854,0.073,1.232-0.126c0.177-0.086,0.324-0.223,0.422-0.393c0.079-0.184,0.116-0.382,0.109-0.581
	C35.615,35.086,35.804,34.204,35.204,34.07z"/>
<path fill="#68E1FD" d="M34.568,36.172c0,0-2.049,0.086-1.182,0.73c0.868,0.645,2.162-0.158,2.289-0.305
	c0.125-0.146,0.023-0.397,0.023-0.397L34.568,36.172z"/>
<path fill="#FFFFFF" d="M35.587,36.454c-0.183,0.222-1.146,0.521-1.571,0.491s-0.808-0.229-0.766-0.505
	c0.041-0.275,0.794-0.915,0.936-0.914c0.141,0.001,0.252,0.329,0.537,0.397c0.26,0.041,0.521-0.054,0.693-0.252
	c0.053-0.073,0.15-0.099,0.232-0.061C35.747,35.756,35.77,36.232,35.587,36.454z"/>
<path fill="#FDB9A9" d="M37.673,34.473c-0.72-0.166-0.579,0.854-0.769,1.232c-0.117,0.194-0.268,0.367-0.443,0.512
	c-0.163,0.159-0.314,0.354-0.324,0.58c-0.005,0.043,0.004,0.088,0.024,0.126c0.036,0.044,0.087,0.075,0.144,0.085
	c0.412,0.119,0.854,0.073,1.231-0.125c0.178-0.086,0.325-0.223,0.423-0.393c0.079-0.184,0.116-0.383,0.109-0.582
	C38.084,35.483,38.272,34.6,37.673,34.473z"/>
<path fill="#68E1FD" d="M37.036,36.565c0,0-2.048,0.086-1.181,0.729c0.867,0.645,2.163-0.155,2.288-0.303
	c0.125-0.148,0.024-0.398,0.024-0.398L37.036,36.565z"/>
<path fill="#FFFFFF" d="M38.055,36.844c-0.183,0.225-1.145,0.521-1.57,0.492c-0.426-0.031-0.809-0.229-0.766-0.506
	c0.041-0.276,0.793-0.916,0.936-0.915c0.141,0.001,0.252,0.329,0.537,0.396c0.26,0.042,0.521-0.054,0.693-0.253
	c0.053-0.072,0.15-0.098,0.232-0.061C38.216,36.148,38.238,36.619,38.055,36.844z"/>
<path fill="#473F47" d="M35.818,25.185l0.961,10.125l1.39-0.172c0.548-2.47,0.414-9.863,0.414-9.863L35.818,25.185z"/>
<path fill="#473F47" d="M36.779,24.911l-0.961,10.125l-1.39-0.171c-0.793-6.407-0.14-10.396-0.14-10.396L36.779,24.911z"/>
<path fill="#412A7C" d="M34.41,21.25c-0.017-0.186-0.066-0.37-0.086-0.56c-0.045-0.382-0.038-0.769,0.021-1.149
	c0.064-0.405,0.188-0.798,0.362-1.169c0.16-0.321,0.449-0.457,0.774-0.617c0.271-0.147,0.566-0.248,0.872-0.297
	c0.216-0.02,0.435-0.008,0.646,0.035c0.653,0.126,1.515,0.462,1.961,0.978c0.336,0.388,0.379,0.942,0.386,1.455
	c0.015,0.708,0,1.415-0.043,2.121c0,0.103-0.014,0.205-0.021,0.307c-0.061,0.775-0.125,1.58-0.344,2.328
	c-0.07,0.235-0.143,0.471-0.36,0.597c-0.505,0.298-1.294,0.134-1.846,0.057c-0.733-0.105-1.486-0.213-2.137-0.568
	c-0.135-0.06-0.245-0.165-0.31-0.298c-0.057-0.159,0.014-0.332,0.063-0.494c0.219-0.724,0.049-1.484,0.049-2.223
	c0-0.134,0.018-0.27,0.018-0.404C34.415,21.316,34.41,21.282,34.41,21.25z"/>
<path opacity="0.1" fill="#020202" enable-background="new    " d="M36.461,24.648c-0.006-0.078,0.014-0.155,0.054-0.221
	c0.083-0.102,0.243-0.081,0.37-0.049l0.824,0.205c0.313,0.077,0.791,0.379,0.871,0.693c0.317-0.222,0.399-0.596,0.459-0.979
	c0.059-0.383,0.062-1.129,0.126-1.515c-0.403,0.29-0.884,0.454-1.38,0.47c-0.469,0.013-1.057,0-1.228-0.505
	c-0.196-0.591-0.264-1.21-0.394-1.817c0.001-0.051-0.039-0.093-0.09-0.094c-0.008,0-0.016,0-0.023,0.002l-1.779,0.019
	c-0.028-0.001-0.056,0.004-0.081,0.015c-0.052,0.032-0.052,0.106-0.043,0.166c0.065,0.402,0.269,0.77,0.571,1.042
	c0.146,0.126,0.24,0.209,0.268,0.397c0.035,0.222,0.025,0.458,0.049,0.685c0.039,0.475,0.143,0.942,0.309,1.389
	C35.6,25.185,36.412,25.682,36.461,24.648z"/>
<polygon fill="#68E1FD" points="35.975,25.162 33.324,25.162 32.994,21.041 35.646,21.041 "/>
<path fill="#FDB9A9" d="M35.82,16.441c0.002-0.194,0.014-0.389,0.037-0.582c0.018-0.168,0.044-0.337,0.076-0.505
	c0.004-0.099,0.05-0.191,0.127-0.252c0.26-0.161,0.561-0.243,0.865-0.237c0.381-0.06,0.737,0.199,0.797,0.579
	c0.007,0.036,0.01,0.072,0.01,0.109c0.045,0.425-0.064,0.85-0.127,1.272c-0.048,0.328-0.065,0.659-0.051,0.99
	c-0.16,0.106-0.345,0.171-0.536,0.189c-0.089,0-0.179-0.015-0.263-0.044c-0.048-0.009-0.09-0.037-0.117-0.077
	c-0.014-0.035-0.016-0.073-0.009-0.109c0.005-0.035,0.008-0.069,0.009-0.104l0,0c0.014-0.193,0.01-0.388-0.012-0.581
	c0.002-0.017-0.004-0.033-0.016-0.044c-0.014-0.003-0.027-0.003-0.041,0h-0.055c-0.096,0.008-0.192,0.008-0.289,0
	c-0.115-0.012-0.222-0.066-0.301-0.15C35.834,16.762,35.797,16.6,35.82,16.441z"/>
<path fill="#DD8049" d="M36.213,15.193c-0.066,0.028-0.143,0.028-0.209,0c-0.07-0.038-0.129-0.094-0.168-0.164
	c-0.164-0.247-0.1-0.58,0.146-0.746c0.183-0.129,0.41-0.179,0.631-0.139c0.058-0.037,0.122-0.061,0.189-0.071
	c0.261-0.08,0.536-0.096,0.805-0.049c0.152,0.044,0.295,0.116,0.422,0.211c0.122,0.081,0.227,0.187,0.307,0.311
	c0.076,0.159,0.125,0.33,0.143,0.505c0.041,0.188,0.063,0.379,0.066,0.571c0,0.084-0.016,0.167-0.047,0.245
	c-0.037,0.086-0.092,0.164-0.16,0.229c-0.1,0.1-0.213,0.185-0.337,0.253c-0.086,0.048-0.186,0.097-0.215,0.192
	c-0.009,0.044-0.013,0.089-0.013,0.134c-0.005,0.066-0.031,0.128-0.076,0.178c-0.029,0.033-0.082,0.112-0.125,0.126
	c-0.045,0.014-0.082-0.042-0.096-0.087c-0.054-0.191-0.04-0.396,0.038-0.578c0.056-0.089,0.089-0.19,0.095-0.295
	c-0.01-0.102-0.15-0.184-0.217-0.126c-0.066,0.058-0.08,0.21-0.163,0.181c0.095-0.295-0.028-0.667-0.312-0.783
	c-0.152-0.046-0.311-0.068-0.469-0.066c-0.076-0.015-0.152-0.023-0.23-0.025L36.213,15.193z"/>
<path fill="#DE9F93" d="M36.519,17.037c0.225-0.042,0.444-0.107,0.655-0.194c0.02,0.683-0.537,0.824-0.537,0.824l0,0
	c0.015-0.193,0.011-0.388-0.011-0.581c0.001-0.017-0.005-0.032-0.017-0.044c-0.014-0.004-0.027-0.004-0.04,0h-0.051V17.037z"/>
<path fill="#412A7C" d="M39.802,20.898l0.315,1.381c0.033,0.115,0.047,0.234,0.041,0.354c-0.021,0.223-0.175,0.408-0.321,0.577
	c-0.181,0.239-0.406,0.439-0.665,0.589c-0.18,0.079-0.371,0.13-0.566,0.151c-0.516,0.078-1.037,0.107-1.559,0.087
	c-0.041,0.001-0.082-0.007-0.121-0.024c-0.037-0.024-0.068-0.057-0.09-0.096c-0.183-0.276-0.34-0.567-0.469-0.872
	c0.418-0.281,0.877-0.496,1.359-0.638c0.098-0.018,0.189-0.062,0.264-0.126c0.05-0.062,0.082-0.135,0.096-0.212
	c0.205-0.884-0.27-1.869,0.111-2.693c0.215-0.47,0.676-0.974,1.01-0.346C39.521,19.603,39.658,20.27,39.802,20.898z"/>
<path fill="#FDB9A9" d="M36.005,23.056c-0.058-0.043-0.118-0.081-0.181-0.114c-0.065-0.032-0.143-0.029-0.205,0.009
	c-0.027,0.021-0.049,0.053-0.083,0.064c-0.022,0.005-0.046,0.005-0.067,0l-0.422-0.043c-0.068-0.017-0.14,0-0.193,0.043
	c-0.055,0.062-0.021,0.159,0.015,0.234c0.108,0.219,0.229,0.433,0.361,0.639c0.024,0.042,0.054,0.081,0.09,0.114
	c0.048,0.037,0.104,0.062,0.164,0.074c0.218,0.05,0.444,0.041,0.656-0.027c0.211-0.069,0.407-0.176,0.581-0.314
	c0.025-0.019,0.047-0.041,0.064-0.066c0.018-0.031,0.027-0.065,0.03-0.101c0.021-0.163-0.032-0.425-0.243-0.414
	C36.377,23.188,36.177,23.153,36.005,23.056z"/>
<path fill="#262836" d="M9.4,34.555c0.009-0.014,0.021-0.024,0.037-0.031c0.036-0.012,0.068,0.021,0.092,0.049
	c0.218,0.252,0.545,0.378,0.858,0.492c0.019,0.006,0.043,0.012,0.058,0c0.015-0.014,0.015-0.027,0.021-0.039
	c0.024-0.033,0.067-0.044,0.104-0.027c0.035,0.019,0.066,0.043,0.092,0.071c0.126,0.116,0.307,0.163,0.446,0.267
	c0.037,0.022,0.065,0.057,0.08,0.098c0.01,0.047-0.005,0.094-0.038,0.127c-0.034,0.033-0.078,0.057-0.126,0.065
	c-0.087,0.018-0.176,0.021-0.264,0.011c-0.437-0.033-0.872-0.08-1.306-0.14c-0.034-0.003-0.067-0.011-0.097-0.026
	c-0.068-0.055-0.103-0.141-0.092-0.228c0.005-0.112,0.018-0.225,0.039-0.336C9.302,34.783,9.335,34.661,9.4,34.555z"/>
<path fill="#262836" d="M8.166,35.34c0.05,0.028,0.105,0.047,0.163,0.055c0.099,0.025,0.202,0.029,0.303,0.012
	c0.103-0.02,0.185-0.096,0.21-0.197c0-0.03,0.022-0.073,0.049-0.059c0.006,0.004,0.01,0.01,0.014,0.016
	c0.07,0.135,0.107,0.285,0.108,0.438c0.014,0.081,0.007,0.164-0.02,0.242c-0.045,0.086-0.127,0.148-0.224,0.166
	c-0.094,0.018-0.19,0.018-0.284,0c-0.081-0.014-0.16-0.028-0.238-0.049c-0.035-0.005-0.068-0.019-0.096-0.04
	c-0.023-0.022-0.042-0.05-0.053-0.081c-0.064-0.15-0.089-0.314-0.07-0.477c0.003-0.035,0.009-0.069,0.018-0.104
	c0-0.015,0.01-0.082,0.031-0.074s0.017,0.017,0.017,0.031c0,0.017,0.003,0.032,0.009,0.047C8.116,35.296,8.138,35.321,8.166,35.34z"
	/>
<path fill="#2F3554" d="M22.085,13.731c-0.021-0.094-0.005-0.193,0.044-0.276c0.041-0.048,0.095-0.083,0.155-0.103
	c0.063-0.023,0.128-0.041,0.194-0.05c0.033-0.003,0.065-0.013,0.095-0.028c0.024-0.021,0.044-0.044,0.061-0.071
	c0.1-0.11,0.246-0.166,0.393-0.15c0.145,0,0.288,0.043,0.433,0.049c0.146,0.006,0.321-0.02,0.452,0.061
	c0.101,0.075,0.169,0.185,0.193,0.308c0.051-0.007,0.103,0.005,0.145,0.034c0.08,0.073,0,0.222,0.07,0.31
	c0.033,0.042,0.091,0.059,0.126,0.104c0.022,0.042,0.029,0.091,0.019,0.137c-0.003,0.052-0.011,0.103-0.021,0.153
	c-0.036,0.139-0.126,0.253-0.169,0.393c-0.021,0.073-0.026,0.15-0.044,0.223c-0.049,0.163-0.129,0.314-0.233,0.447
	c0.073-0.332,0.081-0.675,0.024-1.01c0.002-0.032-0.016-0.062-0.044-0.075c-0.02-0.004-0.042-0.001-0.059,0.009
	c-0.336,0.133-0.708,0.147-1.053,0.042c-0.098-0.044-0.206-0.061-0.313-0.051c-0.043,0.013-0.085,0.029-0.126,0.047
	c-0.043,0.017-0.091,0.017-0.134,0c-0.009,0.019-0.014,0.039-0.014,0.06c-0.083-0.019-0.077-0.138-0.1-0.204
	C22.135,13.974,22.104,13.854,22.085,13.731z"/>
<path fill="#FDB9A9" d="M24.266,14.935c0.009,0.013,0.014,0.028,0.017,0.043c0.018,0.087,0.001,0.177-0.044,0.252
	c-0.044,0.077-0.111,0.138-0.19,0.177c-0.042,0.024-0.092,0.029-0.138,0.013c-0.044-0.03-0.072-0.08-0.075-0.134
	c-0.024-0.109,0.001-0.223,0.068-0.312c0.058-0.058,0.138-0.09,0.22-0.088C24.176,14.88,24.228,14.898,24.266,14.935z"/>
<path fill="#FDB9A9" d="M23.011,16.134c0.006,0.052-0.034,0.097-0.039,0.149c-0.005,0.052,0,0.114,0,0.17
	c-0.003,0.072-0.026,0.141-0.068,0.2c-0.05,0.051-0.114,0.086-0.183,0.102c-0.142,0.053-0.292,0.081-0.444,0.081
	c-0.063-0.004-0.125-0.012-0.187-0.024c-0.1-0.017-0.358-0.008-0.379-0.144c0.006-0.075,0.027-0.148,0.061-0.215
	c0.012-0.037,0.021-0.073,0.032-0.11s0.024-0.091,0.034-0.136c0.048-0.217,0.081-0.459,0.252-0.607
	c0.043-0.039,0.115-0.067,0.154-0.024s0.025,0.105,0.07,0.116c0.016,0.001,0.032-0.001,0.047-0.008
	c0.169-0.077,0.354-0.111,0.539-0.1c0.071,0.004,0.135,0.043,0.169,0.105c0.049,0.126-0.112,0.252-0.073,0.378
	C23.003,16.09,23.008,16.112,23.011,16.134z"/>
<path fill="#FF727D" d="M22.637,20.988c-0.034-0.034-0.071-0.064-0.111-0.091c0.025,0.468,0.102,0.958,0.389,1.33
	c0.075,0.085,0.145,0.174,0.208,0.268c0.126,0.212,0.136,0.487,0.298,0.674c0.142,0.136,0.323,0.225,0.518,0.252
	c0.169,0.06,0.355,0.052,0.52-0.02c0.131-0.098,0.228-0.235,0.276-0.392c0.11-0.261,0.312-0.639,0.146-0.921
	c-0.119-0.201-0.493-0.36-0.72-0.36c-0.312-0.08-0.617-0.185-0.912-0.314c-0.147-0.051-0.286-0.125-0.409-0.22
	C22.767,21.132,22.707,21.055,22.637,20.988z"/>
<path opacity="0.1" fill="#020202" enable-background="new    " d="M15.942,22.922c-0.088,0.286-0.126,0.585-0.112,0.884
	c0,0.045-0.004,0.091-0.014,0.135c-0.016-0.033-0.034-0.049-0.052-0.044c-0.449,0.126-1.414,0.379-1.871,0.459
	c-0.066,0.016-0.135,0.02-0.202,0.01c-0.069-0.018-0.134-0.05-0.189-0.096c-0.565-0.416-0.884-1.034-1.084-1.686
	c0.014-0.113,0.039-0.224,0.075-0.332c0.269,0.146,0.409,0.443,0.577,0.7c0.162,0.249,0.361,0.472,0.591,0.66
	c0.045,0.042,0.1,0.074,0.159,0.094c0.07,0.013,0.143,0.01,0.211-0.009C14.716,23.567,15.443,23.411,15.942,22.922z"/>
<path opacity="0.1" fill="#020202" enable-background="new    " d="M25.867,24.597c-0.396,0.384-0.813,0.744-1.251,1.078
	c-0.312,0.241-0.646,0.479-1.034,0.554c-0.155,0.037-0.317,0.027-0.466-0.028c-0.124-0.063-0.234-0.149-0.326-0.253
	c-0.112-0.111-1.4-1.593-1.421-1.593c-0.073,0.039-0.129,0.104-0.158,0.181c-0.187,0.385-0.302,0.8-0.339,1.226
	c-0.015,0.19-0.015,0.382,0,0.573c0.05,0.648,0.278,1.316,0.053,1.927c-0.043,0.13-0.118,0.247-0.216,0.344
	c-0.095,0.081-0.204,0.144-0.322,0.187c-0.254,0.102-0.513,0.188-0.777,0.259c-0.127,0.038-0.262,0.046-0.394,0.024
	c-0.076-0.016-0.267-0.15-0.32-0.145c0.394-0.057,0.721-0.33,0.845-0.708c0.09-0.292,0.045-0.604,0.047-0.91
	c0.011-0.354,0.053-0.708,0.126-1.055l0.27-1.479c0.091-0.505,0.275-1.222,0.801-1.449c0.104-0.046,0.219,0.029,0.311,0.1
	c0.608,0.477,1.229,0.966,1.665,1.606c0.126,0.178,0.241,0.379,0.441,0.459c0.2,0.081,0.461,0.009,0.677-0.078
	c0.322-0.13,0.635-0.28,0.938-0.451c0.228-0.126,0.527-0.413,0.811-0.379C25.84,24.588,25.854,24.592,25.867,24.597z"/>
</svg>
