<?xml version="1.0" encoding="utf-8"?>
<!-- Generator: Adobe Illustrator 16.0.0, SVG Export Plug-In . SVG Version: 6.00 Build 0)  -->
<!DOCTYPE svg PUBLIC "-//W3C//DTD SVG 1.1//EN" "http://www.w3.org/Graphics/SVG/1.1/DTD/svg11.dtd">
<svg version="1.1" id="Layer_1" xmlns="http://www.w3.org/2000/svg" xmlns:xlink="http://www.w3.org/1999/xlink" x="0px" y="0px"
	 width="50px" height="43.084px" viewBox="0 0 50 43.084" enable-background="new 0 0 50 43.084" xml:space="preserve">
<g>
	<path fill="#FFFFFF" d="M36.365,29.808c-0.222-0.224-0.583-0.224-0.806,0l-1.614,1.614c-0.223,0.222-0.223,0.584,0,0.805
		l0.781,0.783c0.778-0.711,1.621-1.479,2.53-2.312L36.365,29.808z"/>
	<path fill="#FFFFFF" d="M33.138,33.034c-0.535-0.537-0.633-1.325-0.335-1.948l-1.776-1.778C26.761,32.405,20.801,31.993,17,28.193
		c-4.226-4.227-4.226-11.105,0-15.333c4.226-4.226,11.105-4.226,15.332,0c3.8,3.803,4.209,9.762,1.114,14.027l1.778,1.778
		c0.624-0.299,1.41-0.202,1.949,0.332l0.926,0.929c1.472-1.345,3.108-2.845,4.934-4.516c5.117-5.152,5.084-13.443,0-18.595
		c-6.519-6.619-12.897-3.685-18.016,0.99c-5.151-4.674-11.531-7.574-18.014-0.99c-5.083,5.186-5.117,13.477,0,18.595
		c8.632,7.847,13.135,11.942,15.49,14.056c1.467,1.33,3.685,1.33,5.152,0c1.31-1.196,3.276-2.984,6.237-5.687L33.138,33.034z"/>
	<path fill="#FFFFFF" d="M31.525,13.669c-3.783-3.782-9.937-3.783-13.719,0c-3.782,3.781-3.782,9.935,0,13.719
		c3.781,3.78,9.905,3.811,13.719,0C35.332,23.579,35.31,17.453,31.525,13.669z M30.574,21.069c0,0.498-0.404,0.902-0.899,0.902
		h-3.105v3.104c0,0.496-0.402,0.9-0.9,0.9h-1.3c-0.499,0-0.902-0.405-0.902-0.9v-3.104h-3.104c-0.498,0-0.901-0.404-0.901-0.902
		v-1.3c0-0.498,0.403-0.901,0.901-0.901h3.104v-3.104c0-0.498,0.403-0.9,0.902-0.9h1.3c0.498,0,0.9,0.402,0.9,0.9v3.104h3.105
		c0.495,0,0.899,0.403,0.899,0.901V21.069z"/>
	<path fill="#FFFFFF" d="M34.35,29.404l-1.626-1.625c-0.127,0.142-0.259,0.28-0.392,0.414c-0.135,0.133-0.273,0.267-0.415,0.394
		l1.625,1.624L34.35,29.404z"/>
</g>
</svg>
