<?xml version="1.0" encoding="utf-8"?>
<!-- Generator: Adobe Illustrator 16.0.0, SVG Export Plug-In . SVG Version: 6.00 Build 0)  -->
<!DOCTYPE svg PUBLIC "-//W3C//DTD SVG 1.1//EN" "http://www.w3.org/Graphics/SVG/1.1/DTD/svg11.dtd">
<svg version="1.1" id="Layer_1" xmlns="http://www.w3.org/2000/svg" xmlns:xlink="http://www.w3.org/1999/xlink" x="0px" y="0px"
	 width="32.938px" height="25.438px" viewBox="6.75 13.313 32.938 25.438" enable-background="new 6.75 13.313 32.938 25.438"
	 xml:space="preserve">
<title>25</title>
<path fill="#FFBAA8" d="M14.447,33.51c-0.005,0.158,0.024,0.315,0.086,0.461c0.077,0.137,0.193,0.246,0.334,0.314
	c0.302,0.156,0.652,0.19,0.978,0.096c0.044-0.008,0.085-0.032,0.114-0.067c0.016-0.03,0.022-0.063,0.019-0.098
	c-0.024-0.18-0.115-0.344-0.255-0.46c-0.14-0.113-0.259-0.25-0.353-0.403c-0.157-0.302-0.038-1.103-0.608-0.979
	C14.286,32.473,14.434,33.168,14.447,33.51z"/>
<path fill="#68E1FD" d="M14.368,34.051c0,0-0.08,0.198,0.019,0.314c0.099,0.117,1.123,0.754,1.813,0.241
	c0.69-0.512-0.936-0.579-0.936-0.579L14.368,34.051z"/>
<path fill="#FFFFFF" d="M14.409,33.586c0.065-0.031,0.144-0.011,0.185,0.049c0.138,0.153,0.345,0.226,0.548,0.19
	c0.224-0.054,0.315-0.315,0.425-0.315c0.11,0,0.709,0.508,0.742,0.725c0.033,0.218-0.271,0.379-0.608,0.398
	c-0.337,0.021-1.103-0.211-1.243-0.389C14.334,34.046,14.316,33.801,14.409,33.586z"/>
<path fill="#FFBAA8" d="M12.492,33.816c-0.005,0.157,0.024,0.314,0.086,0.459c0.077,0.137,0.194,0.248,0.336,0.315
	c0.301,0.156,0.65,0.19,0.977,0.097c0.046-0.01,0.088-0.037,0.117-0.074c0.016-0.03,0.022-0.064,0.019-0.098
	c-0.024-0.18-0.115-0.344-0.255-0.461c-0.14-0.113-0.259-0.249-0.353-0.402c-0.149-0.303-0.038-1.104-0.608-0.979
	C12.331,32.784,12.479,33.48,12.492,33.816z"/>
<path fill="#68E1FD" d="M12.413,34.362c0,0-0.081,0.198,0.019,0.315c0.1,0.116,1.124,0.753,1.813,0.24
	c0.69-0.512-0.936-0.579-0.936-0.579L12.413,34.362z"/>
<path fill="#FFFFFF" d="M12.454,33.899c0.064-0.032,0.143-0.013,0.184,0.048c0.137,0.154,0.344,0.227,0.548,0.193
	c0.224-0.054,0.315-0.315,0.427-0.315s0.708,0.507,0.74,0.725c0.033,0.218-0.271,0.378-0.608,0.398s-1.103-0.211-1.243-0.389
	C12.379,34.361,12.36,34.113,12.454,33.899z"/>
<path fill="#473F47" d="M12.085,25.401c0,0-0.107,5.855,0.326,7.808l1.103,0.136l0.762-8.016L12.085,25.401z"/>
<path fill="#473F47" d="M15.485,24.761c0,0,0.518,3.151-0.11,8.231l-1.103,0.137l-0.763-8.018L15.485,24.761z"/>
<path fill="#412A7C" d="M15.384,22.292c0,0.105,0.014,0.212,0.014,0.315c0,0.584-0.135,1.186,0.04,1.76
	c0.056,0.122,0.073,0.258,0.047,0.391c-0.05,0.105-0.137,0.189-0.244,0.234c-0.515,0.282-1.103,0.369-1.692,0.451
	c-0.437,0.062-1.057,0.191-1.46-0.044c-0.153-0.114-0.256-0.284-0.287-0.473c-0.154-0.604-0.246-1.221-0.272-1.843
	c0-0.082-0.011-0.157-0.016-0.243c-0.033-0.561-0.046-1.12-0.035-1.679c0-0.406,0.041-0.846,0.305-1.153
	c0.353-0.408,1.035-0.679,1.553-0.773c0.168-0.034,0.341-0.042,0.512-0.025c0.242,0.039,0.475,0.118,0.69,0.235
	c0.258,0.127,0.487,0.235,0.613,0.488c0.139,0.294,0.236,0.606,0.288,0.928c0.046,0.301,0.052,0.606,0.016,0.909
	c-0.016,0.148-0.054,0.294-0.068,0.442C15.385,22.238,15.385,22.265,15.384,22.292z"/>
<path fill="#412A7C" d="M14.896,19.648l1.542,0.822l3.264-1.159l0.567,1.396c0,0-2.993,1.531-3.571,1.538S14.6,21.83,14.6,21.83
	L14.896,19.648z"/>
<path opacity="0.1" fill="#020202" enable-background="new    " d="M16.249,21.353c-0.175-0.021-1.049-0.455-1.145-0.528
	c0.134,0.282,0.315,1.158,0.345,1.175c0.33,0.165,0.688,0.264,1.056,0.292c0.369,0.027,0.738-0.042,1.071-0.202
	c0.164-0.096,0.333-0.183,0.505-0.26c0.104-0.039,0.213-0.061,0.315-0.096c0.272-0.104,0.529-0.245,0.761-0.421
	c0.076-0.038,0.133-0.105,0.157-0.188c0.016-0.104-0.077-0.192-0.171-0.238c-0.149-0.065-0.31-0.099-0.473-0.099
	c-0.214-0.028-0.431-0.023-0.643,0.014c-0.134,0.038-0.233,0.158-0.364,0.222C17.285,21.19,16.658,21.4,16.249,21.353z"/>
<path opacity="0.1" fill="#020202" enable-background="new    " d="M13,25.602c-0.17,0.049-0.561-0.106-0.69-0.13
	c-0.079-0.013-0.158-0.052-0.225-0.071c-0.388-0.096-0.433-1.183-0.473-1.476c-0.101-0.773-0.255-1.575-0.265-2.35
	c-0.017-0.299,0.018-0.598,0.103-0.885c0.088-0.291,0.301-0.527,0.581-0.646c0.054-0.023,0.114-0.029,0.172-0.017
	c0.234,0.06,0.283,0.449,0.324,0.63c0.071,0.331,0.232,0.482,0.396,0.747s0.175,0.596,0.331,0.868
	c0.039,0.076,0.092,0.144,0.158,0.198c0.133,0.078,0.288,0.11,0.441,0.093h1.112c0.089-0.013,0.18,0.01,0.253,0.063
	c0.065,0.085,0.089,0.194,0.066,0.299l-0.068,0.822c0.001,0.036-0.008,0.071-0.027,0.102c-0.032,0.033-0.074,0.054-0.12,0.059
	c-0.305,0.044-0.601,0.135-0.877,0.269c-0.269,0.185-0.555,0.343-0.854,0.473c-0.086,0.039-0.165,0.092-0.233,0.158
	c-0.08,0.099-0.119,0.224-0.112,0.351c0,0.081,0.103,0.328,0.073,0.387C13.053,25.571,13.029,25.592,13,25.602z"/>
<path fill="#FFBAA8" d="M14.19,18.752c-0.062,0.068-0.146,0.111-0.238,0.12c-0.077,0.007-0.154,0.007-0.23,0H13.68
	c-0.01-0.003-0.021-0.003-0.032,0c-0.009,0.009-0.015,0.021-0.014,0.035c-0.013,0.153-0.013,0.307,0,0.46l0,0
	c0,0.028,0,0.055,0,0.083c0.008,0.028,0.008,0.058,0,0.086c-0.022,0.031-0.055,0.053-0.093,0.06
	c-0.067,0.023-0.137,0.035-0.208,0.036c-0.152-0.011-0.3-0.06-0.429-0.142c0.011-0.263-0.002-0.527-0.041-0.788
	c-0.049-0.336-0.137-0.671-0.101-1.008c0.009-0.132,0.059-0.258,0.142-0.361c0.134-0.127,0.315-0.192,0.5-0.18
	c0.242-0.003,0.479,0.062,0.685,0.188c0.076,0.052,0.083,0.118,0.101,0.203c0.027,0.132,0.047,0.267,0.063,0.4
	s0.025,0.306,0.028,0.46C14.293,18.528,14.261,18.651,14.19,18.752z"/>
<path fill="#FF681C" d="M13.922,17.417c-0.157,0.042-0.36,0-0.52,0.069c-0.226,0.116-0.332,0.379-0.249,0.619
	c-0.064,0.023-0.077-0.095-0.127-0.142c-0.051-0.047-0.158,0.016-0.172,0.098c0.004,0.082,0.029,0.162,0.071,0.233
	c0.063,0.145,0.073,0.307,0.032,0.458c-0.011,0.036-0.038,0.079-0.073,0.069c-0.035-0.01-0.062-0.071-0.083-0.098
	c-0.035-0.042-0.073-0.081-0.115-0.117c-0.079-0.069-0.167-0.131-0.249-0.198c-0.082-0.068-0.112-0.132-0.206-0.158
	c-0.09-0.018-0.18-0.029-0.271-0.033c-0.213-0.041-0.352-0.247-0.311-0.459c0.016-0.083,0.059-0.159,0.122-0.216
	c0.031-0.021,0.057-0.049,0.077-0.082c0.012-0.036,0.015-0.075,0.009-0.113c0.004-0.202,0.109-0.388,0.28-0.496
	c0.169-0.106,0.365-0.161,0.564-0.158c0.043,0.003,0.086-0.002,0.127-0.016c0.038-0.02,0.073-0.045,0.103-0.076
	c0.314-0.266,0.784-0.227,1.05,0.087c0.032,0.038,0.06,0.079,0.084,0.122c0.064,0.108,0.089,0.235,0.071,0.359
	C14.125,17.291,14.039,17.39,13.922,17.417z"/>
<path fill="#E0A091" d="M13.722,18.876H13.68c-0.01-0.003-0.021-0.003-0.032,0c-0.009,0.009-0.015,0.022-0.014,0.035
	c-0.013,0.153-0.013,0.307,0,0.46l0,0c-0.279-0.089-0.457-0.362-0.425-0.652c0.167,0.07,0.34,0.123,0.518,0.157H13.722z"/>
<path fill="#412A7C" d="M11.925,20.063L11.925,20.063c0.435-0.154,0.912,0.073,1.066,0.508l0.756,2.13
	c0.154,0.435-0.073,0.912-0.508,1.066l0,0c-0.435,0.154-0.912-0.073-1.066-0.508l-0.756-2.13
	C11.263,20.694,11.49,20.217,11.925,20.063z"/>
<path fill="#FCB400" d="M35.903,20.634c-0.676,12.668-9.153,15.979-9.153,15.979c-9.413-5.607-9.366-16.559-9.366-16.559
	c5.999-1.62,9.43-4.932,9.537-5.041l0,0C29.158,18.273,35.903,20.634,35.903,20.634z"/>
<path fill="#FFBAA8" d="M16.527,21.696c0.079-0.058,0.158-0.123,0.224-0.186c0.171-0.155,0.365-0.283,0.574-0.38
	c0.21-0.098,0.445-0.127,0.672-0.085c0.049,0.009,0.107,0.04,0.101,0.09s-0.035,0.053-0.065,0.069
	c-0.132,0.073-0.272,0.132-0.417,0.176c-0.06,0.018-0.129,0.04-0.158,0.098c0.048,0.005,0.098,0,0.144-0.017
	c0.179-0.045,0.365-0.059,0.549-0.04c0.018,0,0.038,0,0.047,0.022c0.01,0.022,0,0.047-0.028,0.062
	c-0.176,0.14-0.441,0.131-0.609,0.282c-0.03,0.025-0.052,0.079-0.019,0.1c0.014,0.004,0.029,0.004,0.042,0
	c0.072,0,0.144-0.03,0.216-0.043c0.116-0.022,0.234-0.026,0.351-0.009c0.016,0,0.031,0.007,0.041,0.019
	c0.018,0.027-0.019,0.057-0.047,0.071l-0.61,0.266c0.084,0.007,0.168,0.007,0.252,0c0.085-0.005,0.169,0.022,0.236,0.076
	c0.005,0.003,0.009,0.008,0.009,0.014c0,0.011,0,0.018-0.017,0.022c-0.098,0.053-0.205,0.085-0.315,0.095
	c-0.065,0.005-0.131,0.017-0.194,0.035c-0.039,0.014-0.076,0.031-0.112,0.05c-0.117,0.063-0.244,0.105-0.375,0.126
	c-0.131,0.022-0.267,0-0.384-0.063c-0.031-0.02-0.064-0.037-0.099-0.05c-0.126-0.035-0.267,0.096-0.383,0.035
	c-0.039-0.027-0.071-0.063-0.091-0.105c-0.063-0.104-0.274-0.394-0.104-0.49c0.096-0.037,0.193-0.069,0.293-0.094
	C16.349,21.802,16.441,21.754,16.527,21.696z"/>
<path fill="#412A7C" d="M13.891,22.031l2.085-0.2l0.337,1.018c0,0-3.048,1.24-3.641,0.895c-0.592-0.345-0.042-0.907-0.042-0.907
	S12.7,22.011,13.891,22.031z"/>
<path fill="#FCB400" d="M34.809,21.249c-0.598,11.166-8.068,14.084-8.068,14.084c-8.296-4.943-8.255-14.595-8.255-14.595
	c5.288-1.427,8.312-4.348,8.405-4.438l0,0C28.86,19.175,34.809,21.249,34.809,21.249z"/>
<linearGradient id="SVGID_1_" gradientUnits="userSpaceOnUse" x1="1745.1895" y1="-2471.417" x2="1976.2095" y2="-2424.887" gradientTransform="matrix(0.1575 0 0 -0.1575 -281.5367 -356.7587)">
	<stop  offset="0" style="stop-color:#000000"/>
	<stop  offset="1" style="stop-color:#000000;stop-opacity:0"/>
</linearGradient>
<path fill="url(#SVGID_1_)" d="M26.893,16.299l-0.157,19.034c-8.295-4.943-8.254-14.595-8.254-14.595
	c5.288-1.427,8.311-4.348,8.406-4.438L26.893,16.299z"/>
<circle fill="#FFFFFF" cx="26.74" cy="24.459" r="1.463"/>
<polygon fill="#FFFFFF" points="25.859,28.109 27.436,28.109 26.988,25.765 26.414,25.765 "/>
<polyline opacity="0.18" fill="none" stroke="#FFFFFF" stroke-width="0.96" stroke-miterlimit="10" enable-background="new    " points="
	18.884,23.923 20.767,23.923 20.767,22.558 22.258,22.558 "/>
<polyline opacity="0.18" fill="none" stroke="#FFFFFF" stroke-width="0.96" stroke-miterlimit="10" enable-background="new    " points="
	19.253,25.387 21.704,25.387 21.704,28.367 23.238,28.367 "/>
<ellipse opacity="0.35" fill="#E0E0E0" enable-background="new    " cx="24.021" cy="35.047" rx="15.159" ry="2.499"/>
<polyline opacity="0.18" fill="none" stroke="#FFFFFF" stroke-width="0.96" stroke-miterlimit="10" enable-background="new    " points="
	34.652,22.996 31.549,22.996 31.549,21.236 28.778,21.236 "/>
<polyline opacity="0.18" fill="none" stroke="#FFFFFF" stroke-width="0.96" stroke-miterlimit="10" enable-background="new    " points="
	34.074,25.922 31.051,25.922 31.051,29.021 28.92,29.021 "/>
<polyline opacity="0.18" fill="none" stroke="#FFFFFF" stroke-width="0.96" stroke-miterlimit="10" enable-background="new    " points="
	22.258,31.376 24.794,31.376 24.794,30.186 26.328,30.186 "/>
<path fill="#FFBAA8" d="M20.412,19.454c0.062,0.023,0.13,0.009,0.178-0.036c0.069-0.08,0.015-0.202-0.042-0.292
	c0.054-0.041,0.131,0.011,0.172,0.066s0.09,0.121,0.158,0.113c0.067-0.008,0.105-0.101,0.088-0.17
	c-0.027-0.068-0.062-0.132-0.102-0.192c0.03-0.041,0.096,0,0.123,0.04c0.027,0.039,0.063,0.099,0.112,0.088
	c0.04-0.018,0.061-0.062,0.049-0.104c-0.012-0.041-0.021-0.083-0.027-0.125c0.083-0.027,0.18,0.06,0.257,0.019
	c0.053-0.039,0.064-0.114,0.025-0.167c-0.003-0.003-0.006-0.007-0.009-0.01c-0.05-0.048-0.114-0.079-0.183-0.087
	c-0.17-0.036-0.347-0.015-0.504,0.06c-0.181,0.072-0.37,0.11-0.547,0.202c-0.163,0.069-0.306,0.177-0.417,0.315
	c-0.018,0.032-0.009,0.072,0.021,0.093c0.023,0.008,0.049,0.008,0.072,0c0.125-0.024,0.255-0.002,0.365,0.061
	c0.06,0.042,0.122,0.08,0.186,0.114L20.412,19.454z"/>
<linearGradient id="SVGID_2_" gradientUnits="userSpaceOnUse" x1="2007.0566" y1="-2384.708" x2="2007.0566" y2="-2384.708" gradientTransform="matrix(0.1575 0 0 -0.1575 -281.5367 -356.7587)">
	<stop  offset="0.01" style="stop-color:#FFFFFF"/>
	<stop  offset="0.13" style="stop-color:#FFFFFF;stop-opacity:0.69"/>
	<stop  offset="0.15" style="stop-color:#FFFFFF;stop-opacity:0.61"/>
	<stop  offset="0.2" style="stop-color:#FFFFFF;stop-opacity:0.47"/>
	<stop  offset="0.25" style="stop-color:#FFFFFF;stop-opacity:0.34"/>
	<stop  offset="0.3" style="stop-color:#FFFFFF;stop-opacity:0.23"/>
	<stop  offset="0.36" style="stop-color:#FFFFFF;stop-opacity:0.15"/>
	<stop  offset="0.44" style="stop-color:#FFFFFF;stop-opacity:0.08"/>
	<stop  offset="0.52" style="stop-color:#FFFFFF;stop-opacity:0.03"/>
	<stop  offset="0.65" style="stop-color:#FFFFFF;stop-opacity:0.01"/>
	<stop  offset="1" style="stop-color:#FFFFFF;stop-opacity:0"/>
</linearGradient>
<path fill="url(#SVGID_2_)" d="M34.625,18.892"/>
</svg>
